<svg width="275" height="275" viewBox="0 0 275 275" fill="none" xmlns="http://www.w3.org/2000/svg">
<path fill-rule="evenodd" clip-rule="evenodd" d="M0 0H274.749V274.749H0V0Z" fill="white"/>
<path fill-rule="evenodd" clip-rule="evenodd" d="M215.244 183.884V216.576H203.211V183.884H215.244ZM176.579 191.067C183.103 191.067 188.451 195.06 188.451 199.961C188.451 204.881 183.103 208.875 176.579 208.875C170.055 208.875 164.709 204.881 164.709 199.961C164.709 195.06 170.055 191.067 176.579 191.067ZM179.752 183.884L169.894 172.76H184.6L198.146 191.067C199.466 192.938 200.464 196.129 200.607 199.338C201.09 209.23 189.788 217.377 176.579 217.377C163.37 217.377 152.552 209.267 152.552 199.338C152.55 189.392 162.247 181.619 179.752 183.884ZM123.212 202.192C123.212 206.629 127.328 208.875 130.715 208.875C134.102 208.875 138.613 206.379 138.613 202.192V183.884H150.002V202.192C150.002 214.882 138.773 217.43 130.715 217.43C122.676 217.43 111.214 214.882 111.214 202.192V183.884H123.212V202.192ZM87.0958 172.76L114.742 216.575H100.945L96.0784 208.875H69.3428L64.297 216.575H50.2158L75.9551 176.967L72.0538 172.76H87.0958ZM91.1609 200.996H74.4228L82.908 187.965L91.1609 200.996Z" fill="#CC2229"/>
<path fill-rule="evenodd" clip-rule="evenodd" d="M213.78 139.142C217.166 139.41 220.339 139.069 223.655 138.304C225.532 137.774 227.367 137.107 229.145 136.307C230.86 135.437 232.505 134.436 234.066 133.312C235.576 132.132 236.994 130.838 238.309 129.443C239.567 127.997 240.717 126.461 241.748 124.845C242.996 122.723 243.941 120.585 244.745 118.25C245.279 116.307 245.688 114.419 245.939 112.439C246.046 110.889 246.082 109.39 246.046 107.858C245.868 105.309 245.422 102.974 244.745 100.516C244.262 99.1403 243.726 97.7842 243.138 96.4505C241.803 93.8121 240.235 91.5486 238.309 89.3022C236.989 87.9184 235.571 86.6313 234.066 85.4509C232.116 84.0388 230.025 82.8317 227.827 81.849C226.006 81.1317 224.136 80.5481 222.231 80.1029C219.531 79.6246 216.789 79.4216 214.048 79.4971C209.448 79.8706 204.831 81.2788 200.946 83.8103C200.679 84.0056 200.377 84.255 200.109 84.4503C203.175 89.0685 205.206 94.4507 206.436 99.8158C206.793 101.545 207.078 103.277 207.256 105.021C207.843 110.563 207.292 116.179 205.758 121.527C204.456 125.93 202.442 130.386 199.787 134.147C203.815 137.039 208.861 138.784 213.78 139.142ZM191.731 99.4623C191.225 98.0821 190.63 96.7365 189.949 95.4342C188.344 98.4645 187.187 101.69 186.668 105.095C186.384 107.037 186.259 108.999 186.384 110.978C186.651 115.203 188.008 119.443 190.02 123.17C191.303 120.586 192.267 118.035 192.854 115.203C193.835 110.354 193.531 105.219 192.067 100.477L191.731 99.4623ZM168.308 138.858C172.069 138.234 175.457 136.967 178.79 135.148L180.071 134.382C179.359 133.419 178.734 132.314 178.146 131.279C176.14 127.731 174.617 123.931 173.617 119.979C173.05 117.676 172.651 115.335 172.423 112.975C172.138 109.411 172.282 105.825 172.852 102.296C173.939 95.8974 176.311 89.8909 179.961 84.5429C178.412 83.5266 176.807 82.5816 175.097 81.8689C172.192 80.6559 169.126 79.8363 165.971 79.604C159.411 79.1051 152.995 80.6203 147.469 84.1866C151.39 90.0862 153.814 97.0021 154.795 104.008C155.009 106.129 155.151 108.143 155.134 110.281C155.027 114.471 154.315 118.554 153.066 122.563C151.729 126.824 149.751 130.729 147.328 134.471C153.46 138.5 161.053 139.998 168.308 138.858ZM139.376 99.1957C138.858 97.7659 138.221 96.3826 137.47 95.0607C136.331 97.2529 135.349 99.5164 134.707 101.888C134.083 104.328 133.693 106.844 133.693 109.374C133.71 110.979 133.852 112.601 134.156 114.169C134.825 117.422 135.972 120.558 137.561 123.474C138.557 121.53 139.414 119.499 140.001 117.395C140.536 115.272 140.929 113.223 141.055 111.049C141.179 108.089 140.965 105.131 140.286 102.26C140.055 101.244 139.716 100.176 139.376 99.1957ZM120.948 98.6968C122.106 94.1513 123.96 89.9451 126.419 85.9512L127.365 84.5443L127.508 84.3305C124.101 82.2267 120.448 80.7657 116.51 79.9988C113.658 79.4458 110.556 79.3916 107.667 79.624C103.64 80.1955 99.8058 81.4442 96.3493 83.5822C95.9388 83.8502 95.4927 84.1524 95.1192 84.4545C98.2051 89.0727 100.216 94.4549 101.448 99.82C102.072 102.681 102.424 105.594 102.5 108.52C102.533 111.175 102.342 113.828 101.93 116.451C101.631 118.163 101.244 119.859 100.769 121.531C99.4694 125.934 97.454 130.39 94.7985 134.151C104.192 140.874 117.918 140.943 127.42 134.365C123.783 128.929 121.305 122.957 120.219 116.504C119.5 112.05 119.458 107.512 120.095 103.046C120.323 101.583 120.608 100.141 120.948 98.6968ZM86.5613 98.9805C86.0986 97.7672 85.5631 96.5829 84.9577 95.4342C83.3713 98.4645 82.2111 101.69 81.6951 105.095C81.4086 107.037 81.2831 108.999 81.4086 110.978C81.678 115.203 83.0321 119.443 85.0276 123.17C85.9911 121.228 86.8107 119.321 87.3809 117.217C89.0571 111.387 88.7364 104.669 86.5613 98.9805ZM68.0586 117.395C67.4084 113.863 67.1754 110.268 67.3644 106.682C67.8775 98.7545 70.5058 91.1097 74.9759 84.5429C73.4422 83.5266 71.8201 82.5816 70.1268 81.8689C67.2033 80.6559 64.1374 79.8363 61.0001 79.604C58.6654 79.4258 56.3477 79.5527 54.0301 79.8363C52.5703 80.1035 51.1247 80.4427 49.6984 80.8526C47.3979 81.6226 45.1822 82.626 43.0861 83.8473C41.4735 84.8752 39.942 86.025 38.505 87.2867C37.1059 88.5978 35.8124 90.0171 34.6365 91.5315C33.2244 93.4783 32.0232 95.5696 31.0531 97.7703C30.3265 99.5892 29.7367 101.46 29.2885 103.366L29.0391 104.846C28.7788 106.855 28.6778 108.882 28.7369 110.907C28.8267 112.422 29.0391 113.901 29.2899 115.398C29.9855 118.321 30.9134 120.924 32.3032 123.598C33.0251 124.845 33.8047 126.058 34.6394 127.233C36.136 129.16 37.741 130.816 39.5768 132.421C41.0914 133.608 42.6879 134.686 44.3547 135.648C46.5469 136.754 48.7562 137.644 51.128 138.304C52.5534 138.641 54.0515 138.928 55.5125 139.105C57.1516 139.212 58.7381 139.283 60.3601 139.193C64.7014 138.881 68.9344 137.693 72.8036 135.699L73.8185 135.146L75.0842 134.381C73.8897 132.74 72.8906 130.816 71.9641 128.997C70.1647 125.316 68.8518 121.415 68.0586 117.395ZM242.461 144.56C240.741 145.792 238.963 146.94 237.132 148C235.225 148.965 233.274 149.839 231.285 150.62C229.234 151.316 227.165 151.922 225.044 152.403L222.888 152.795C219.109 153.259 215.312 153.455 211.532 153.045C206.994 152.538 202.559 151.348 198.377 149.516C195.417 148.172 192.598 146.536 189.963 144.631C187.023 146.68 183.991 148.447 180.677 149.836C176.126 151.71 171.306 152.846 166.398 153.203C162.972 153.401 159.535 153.222 156.148 152.668C149.356 151.44 142.959 148.801 137.326 144.773C134.92 146.467 132.405 147.982 129.714 149.211C124.154 151.742 118.27 153.133 112.157 153.276C108.129 153.328 104.135 152.901 100.212 151.886C94.6873 150.441 89.6415 147.982 84.9734 144.629C82.5118 146.34 80.0345 147.838 77.3434 149.104C71.7631 151.688 65.6682 153.15 59.5177 153.276C56.9507 153.311 54.4377 153.097 51.9063 152.794C49.7551 152.409 47.6247 151.915 45.5235 151.314C43.4919 150.623 41.4933 149.838 39.5341 148.962C37.6451 147.999 35.8068 146.94 34.0264 145.788C31.7322 144.157 29.5577 142.365 27.5196 140.423C26.0601 138.892 24.6745 137.292 23.3675 135.628C22.1439 133.906 21.0019 132.128 19.9452 130.299C18.9771 128.388 18.0912 126.437 17.2898 124.45C16.5959 122.401 16.0013 120.32 15.508 118.213C15.1284 116.035 14.8549 113.84 14.6885 111.635L14.6172 109.389L14.6885 107.125L14.8481 104.897L15.1346 102.704L15.508 100.547L16.0255 98.4075L16.5956 96.3407L17.2898 94.3095L18.0922 92.2955L18.9831 90.3527L19.9452 88.4627L21.0142 86.6083L22.1374 84.8422L23.3675 83.1147L24.6689 81.4755C26.0586 79.8549 27.5196 78.3397 29.0348 76.8758C30.6436 75.5001 32.3089 74.1919 34.0264 72.9547C35.8156 71.8175 37.6532 70.7584 39.5341 69.7804C41.4935 68.8993 43.492 68.1078 45.5235 67.4085C47.6287 66.8199 49.7483 66.3025 51.9063 65.949C55.062 65.5556 58.2335 65.3418 61.4078 65.5214C65.4359 65.8235 69.3571 66.6075 73.1372 67.9274C76.8141 69.2725 80.3153 71.0562 83.5652 73.2397L84.295 73.7571L84.8836 74.1848C91.1766 69.4967 98.7168 66.5576 106.525 65.6824C111.195 65.2377 115.918 65.4316 120.516 66.4307C124.626 67.3385 128.59 68.8081 132.299 70.7981C134.082 71.7802 135.775 72.8848 137.433 74.0422C140.232 71.9384 143.369 70.1923 146.596 68.8382C152.781 66.2169 159.68 65.1294 166.401 65.5228C168.559 65.6824 170.751 65.986 172.853 66.4307C177.887 67.531 182.688 69.504 187.041 72.2605C187.986 72.8649 188.967 73.5262 189.858 74.1848C194.195 70.9904 199.066 68.5944 204.244 67.1092C208.165 65.986 212.141 65.4871 216.223 65.433L218.539 65.4872L220.838 65.6667L223.083 65.9518C225.269 66.3305 227.435 66.8176 229.573 67.4114C231.629 68.089 233.647 68.8808 235.615 69.7832C237.515 70.7366 239.36 71.7964 241.141 72.9575C242.852 74.1862 244.492 75.469 246.079 76.8787C247.597 78.3169 249.032 79.8407 250.376 81.4427C251.671 83.0976 252.872 84.8231 253.975 86.6111L255.01 88.4655L255.974 90.3556L256.81 92.2983L257.577 94.2939L258.237 96.3436L258.806 98.4103C259.288 100.57 259.662 102.689 259.929 104.9C260.089 107.146 260.141 109.391 260.089 111.638C259.926 113.844 259.646 116.04 259.25 118.216L258.752 120.355L258.164 122.424L257.469 124.453C256.692 126.447 255.811 128.399 254.83 130.302C253.426 132.745 251.841 135.081 250.09 137.289C248.716 138.898 247.258 140.433 245.722 141.887L244.117 143.261L242.461 144.56Z" fill="white"/>
<path fill-rule="evenodd" clip-rule="evenodd" d="M85.6519 134.026C79.1636 127.536 75.4747 119.231 75.4747 109.39C75.4747 100.014 78.9854 91.6713 84.9207 85.2557C90.7504 91.6186 94.3509 100.104 94.3509 109.39C94.3509 115.843 93.1037 121.28 90.072 126.502C94.5832 112.171 93.2805 102.081 87.7557 94.0773C88.7535 95.4856 91.4631 103.382 90.9642 109.389C90.9642 116.038 88.9317 122.224 85.4723 127.357L85.6519 134.026ZM258.79 109.391C258.79 132.833 239.663 151.922 216.24 151.922C206.436 151.922 197.381 148.588 189.983 142.922C182.57 148.519 173.459 151.922 163.567 151.922C153.797 151.922 144.778 148.588 137.346 143.082C129.912 148.643 120.948 151.922 111.25 151.922C101.446 151.922 92.3925 148.588 84.9934 142.922C77.5957 148.519 68.4691 151.922 58.5941 151.922C35.1525 151.922 16.0269 132.832 16.0269 109.391C16.0269 85.9513 35.1525 66.8243 58.5941 66.8243C68.4691 66.8243 77.5957 70.2309 84.9021 75.9338C92.23 70.2309 101.374 66.8243 111.25 66.8243C121.125 66.8243 130.128 70.2109 137.453 75.7727C144.916 69.9619 154.108 66.8123 163.567 66.8243C173.459 66.8243 182.57 70.2309 189.878 75.9338C197.22 70.2309 206.365 66.8243 216.24 66.8243C240.554 66.8243 258.79 85.8986 258.79 109.391ZM216.24 71.2814C209.038 71.2814 202.408 73.3311 196.685 76.9144C206.043 69.4441 221.069 67.8234 238.326 73.8485C232.106 70.0698 224.084 67.6282 216.24 67.6282C206.275 67.6282 197.042 71.2457 189.841 77.1282L189.948 81.9232C183.084 75.3465 173.78 71.2828 163.565 71.2828C156.656 71.271 149.887 73.2247 144.046 76.9159C153.371 69.4455 168.416 67.8249 185.652 73.8499C179.43 70.0712 171.426 67.6296 163.565 67.6296C153.635 67.6296 144.654 70.9806 137.451 76.8802V81.9246C130.608 75.348 121.463 71.2842 111.249 71.2842C104.334 71.272 97.5589 73.2256 91.7126 76.9173C101.052 69.4469 116.079 67.8263 133.333 73.8513C127.112 70.0727 119.11 67.631 111.249 67.631C101.301 67.631 92.0689 71.2486 84.8494 77.1311L84.9577 81.926C78.1131 75.3494 68.8069 71.2857 58.5941 71.2857C51.6747 71.2757 44.8944 73.229 39.0409 76.9187C48.3984 69.4484 63.4247 67.8277 80.6788 73.8527C74.4585 70.0741 66.4365 67.6324 58.5941 67.6324C35.5986 67.6324 16.8293 86.4202 16.8293 109.396C16.8293 117.382 19.6088 126.115 24.3325 133.157C14.7968 114.352 19.6088 100.055 25.6894 91.161C23.3533 96.3836 20.3058 103.371 20.4669 109.396C21.0556 130.128 37.6141 147.507 58.5955 147.507C69.2359 147.507 78.22 143.729 85.2799 136.598C92.267 143.888 100.45 147.507 111.252 147.507C116.155 147.508 121.01 146.533 125.533 144.639C130.056 142.745 134.156 139.969 137.595 136.474C144.39 143.283 153.247 147.507 163.568 147.507C174.229 147.507 183.196 143.729 190.253 136.598C197.258 143.888 205.423 147.507 216.241 147.507C237.223 147.507 254.334 130.377 254.334 109.396C254.333 88.554 237.079 71.2814 216.24 71.2814ZM132.425 133.867C126.552 138.972 119.032 141.783 111.25 141.782C103.603 141.655 100.179 140.319 96.918 138.716C106.258 145.988 127.008 143.171 132.3 138.607C126.526 142.761 119.269 145.151 111.249 145.151C101.408 145.151 93.1194 141.551 86.5969 135.115C93.299 128.288 96.6857 119.714 96.6857 109.393C96.6857 99.3569 92.7474 90.1789 86.3475 83.3514C91.2493 78.431 100.946 73.619 111.25 73.619C120.626 73.619 129.449 77.8794 135.868 83.8318H131.143C125.1 91.0684 121.836 99.287 121.836 109.393C121.836 117.379 124.617 126.112 129.324 133.154C119.788 114.349 124.617 100.052 130.679 91.1582C128.343 96.3807 125.331 103.386 125.474 109.393C125.689 118.716 129.912 127.361 135.634 134.063L132.425 133.867ZM137.434 133.261C131.409 126.844 127.827 118.768 127.827 109.391C127.827 100.015 131.48 91.4418 137.451 85.0419C143.53 91.4233 147.007 99.89 147.007 109.391C147.007 115.844 145.758 121.282 142.728 126.503C147.238 112.172 145.935 102.082 140.41 94.0787C141.409 95.487 144.119 103.384 143.637 109.39C143.637 116.236 141.481 122.635 137.826 127.876L137.434 133.261ZM139.289 135.148C145.6 128.41 149.359 119.409 149.359 109.39C149.359 99.354 145.688 90.6921 139.289 83.8289C145.706 77.5202 153.906 73.6161 163.567 73.6161C172.89 73.6161 181.623 77.1268 187.988 83.0279L183.888 83.0464C177.795 90.4732 174.468 99.7847 174.475 109.391C174.475 117.378 177.256 126.111 181.98 133.152C172.444 114.347 177.258 100.051 183.335 91.1567C180.999 96.3793 177.967 103.349 178.111 109.391C178.325 119.373 181.678 127.592 188.129 134.489L184.44 134.099C178.807 138.86 171.499 141.783 163.565 141.783C155.918 141.656 152.798 140.142 149.252 138.717C158.574 145.989 179.323 143.173 184.617 138.609C178.841 142.762 171.586 145.153 163.565 145.153C153.281 145.15 145.902 141.067 139.289 135.148ZM145.42 134.829C150.518 138.5 156.863 140.64 163.565 140.64C170.286 140.64 176.863 138.375 182.014 134.757C176.934 127.716 173.671 118.715 173.671 109.391C173.671 100.034 176.72 91.3534 181.906 84.2223C176.616 80.2516 170.178 78.1121 163.564 78.1274C156.862 78.1274 150.657 80.1771 145.56 83.8303C150.461 90.7477 153.777 100.176 153.777 109.391C153.78 118.715 150.5 127.787 145.42 134.829ZM137.561 126.219C140.794 121.203 142.509 115.359 142.498 109.391C142.498 103.081 140.75 97.1818 137.453 92.4225C134.28 97.4312 132.32 103.207 132.32 109.391C132.32 115.452 134.529 121.387 137.561 126.219ZM129.359 134.703C124.155 127.467 121.017 118.768 121.017 109.391C121.014 100.231 123.985 91.3181 129.483 83.9914C124.385 80.4437 117.879 78.1274 111.267 78.1274C103.334 77.6813 94.6716 82.2268 93.4059 84.3648C98.1125 91.1567 101.141 100.389 101.141 109.391C101.141 118.696 98.1125 127.325 92.9056 134.471C97.987 138.393 104.368 140.64 111.249 140.64C117.969 140.64 124.245 138.5 129.359 134.703ZM83.139 134.489L79.4487 134.099C73.8156 138.86 66.5263 141.783 58.5941 141.783C50.947 141.656 48.6806 139.839 44.2435 138.717C53.5868 145.989 74.333 143.173 79.6454 138.609C73.8527 142.762 66.5975 145.153 58.5941 145.153C38.9154 145.153 22.8187 129.092 22.8187 109.394C22.8187 89.6972 38.8969 73.6204 58.5941 73.6204C67.916 73.6204 76.6507 77.1311 83.0149 83.0321L78.8971 83.0507C73.0331 90.2331 69.4853 99.431 69.4853 109.396C69.4853 117.382 72.2833 126.115 76.9899 133.157C67.4542 114.352 72.2848 100.055 78.3454 91.161C76.0107 96.3836 72.9974 103.354 73.1414 109.396C73.3524 119.373 76.6863 127.591 83.139 134.489ZM85.0461 125.951C88.1817 120.997 89.8442 115.253 89.8396 109.39C89.8396 103.295 88.0764 97.5738 84.9919 92.6876C81.9445 97.4654 79.9846 103.295 79.9846 109.39C79.9846 115.362 82.1041 121.245 85.0461 125.951ZM77.0426 134.757C71.9626 127.716 68.6814 118.715 68.6814 109.391C68.6814 100.034 71.7317 91.3534 76.9172 84.2223C71.6351 80.2516 65.2022 78.1118 58.5941 78.1274C41.3742 78.1274 27.3286 92.173 27.3286 109.391C27.3286 126.613 41.3742 140.64 58.5941 140.64C65.2976 140.64 71.8928 138.375 77.0426 134.757ZM190.643 134.026C184.155 127.536 180.465 119.231 180.465 109.39C180.465 100.014 183.977 91.6713 189.893 85.2557C195.74 91.6186 199.322 100.104 199.322 109.39C199.322 115.843 198.076 121.28 195.045 126.502C199.573 112.171 198.253 102.081 192.746 94.0773C193.726 95.4856 196.454 103.382 195.954 109.389C195.954 116.038 193.923 122.224 190.464 127.357L190.643 134.026ZM191.587 135.114C198.272 128.286 201.677 119.713 201.677 109.391C201.677 99.3555 197.736 90.1775 191.319 83.35C196.239 78.4296 205.919 73.6176 216.239 73.6176C235.919 73.6176 251.977 89.6943 251.977 109.391C251.977 115.844 250.748 121.282 247.718 126.503C252.228 112.172 250.908 102.082 245.402 94.0787C246.382 95.487 249.109 103.384 248.609 109.39C248.609 127.233 234.064 141.78 216.239 141.78C208.591 141.653 205.169 140.318 201.889 138.714C211.231 145.986 231.977 143.17 237.273 138.606C231.497 142.759 224.242 145.15 216.239 145.15C206.401 145.15 198.111 141.549 191.587 135.114ZM197.88 134.471C202.977 138.393 209.358 140.64 216.24 140.64C233.44 140.64 247.488 126.611 247.488 109.391C247.488 92.173 233.441 78.1274 216.24 78.1274C208.308 77.6813 199.644 82.2268 198.38 84.3648C203.085 91.1567 206.117 100.389 206.117 109.391C206.116 118.695 203.085 127.324 197.88 134.471ZM190.037 125.951C193.066 121.121 194.831 115.452 194.831 109.39C194.831 103.295 193.049 97.5738 189.983 92.6876C186.917 97.4654 184.973 103.295 184.973 109.39C184.973 115.362 187.078 121.245 190.037 125.951Z" fill="#D0D1D3"/>
</svg>
