<svg width="275" height="270" viewBox="0 0 275 270" fill="none" xmlns="http://www.w3.org/2000/svg">
<path fill-rule="evenodd" clip-rule="evenodd" d="M0 0H274.07V274.07H0V0Z" fill="white"/>
<path fill-rule="evenodd" clip-rule="evenodd" d="M72.9553 139.058C72.9553 162.7 62.0681 171.72 40.2939 171.72C18.2083 171.72 8.56528 159.59 8.56528 140.925V129.104H32.5178V138.748C32.5178 145.28 32.5178 151.501 39.6726 151.501C46.5159 151.501 46.2045 143.104 46.2045 139.371V84.3086H72.9553V139.058ZM96.9078 131.591C97.8405 125.059 101.574 121.325 107.795 121.325C113.394 121.325 117.438 125.992 117.438 131.591H96.9078ZM138.281 144.035C138.281 119.772 128.326 106.084 105.929 106.084C87.8875 106.084 76.0677 120.705 76.0677 138.747C76.0677 159.589 89.7544 171.408 107.796 171.408C120.86 171.408 132.682 165.188 137.037 151.811H116.818C114.952 154.611 111.219 156.165 107.796 156.165C100.953 156.165 97.2206 151.188 96.5992 144.035H138.281ZM160.678 131.591C161.611 125.059 165.343 121.325 171.564 121.325C177.163 121.325 181.205 125.992 181.205 131.591H160.678ZM202.048 144.035C202.048 119.772 192.095 106.084 169.698 106.084C151.656 106.084 139.836 120.705 139.836 138.747C139.836 159.589 153.522 171.408 171.564 171.408C184.319 171.408 196.449 165.188 200.802 151.811H180.582C178.717 154.611 174.983 156.165 171.562 156.165C164.72 156.165 160.986 151.188 160.365 144.035H202.048ZM225.066 138.747C225.066 131.281 226.622 123.503 234.399 123.503C242.176 123.503 244.041 131.279 244.041 138.747C244.041 145.9 242.176 153.988 234.399 153.988C226.622 153.988 225.066 145.9 225.066 138.747ZM204.225 189.762H225.689V163.011H226.001C229.112 168.299 235.024 171.408 241.554 171.408C260.53 171.408 265.507 153.676 265.507 139.058C265.507 123.505 258.042 106.084 241.866 106.084C231.29 106.084 227.866 110.439 225.068 114.483V107.64H204.226V189.762H204.225ZM255.864 178.873C255.864 176.073 257.729 174.208 260.217 174.208C262.706 174.208 264.571 176.073 264.571 178.873C264.571 181.361 262.706 183.23 260.217 183.23C257.729 183.23 255.864 181.361 255.864 178.873ZM254.617 178.873C254.617 181.673 257.108 184.164 260.217 184.164C263.017 184.164 265.505 181.673 265.505 178.873C265.505 175.762 263.017 173.585 260.217 173.585C257.108 173.585 254.617 175.762 254.617 178.873ZM258.041 181.986H258.973V179.183H260.217L261.773 181.986H263.017L261.152 179.183C262.084 179.183 262.707 178.56 262.707 177.318C262.707 176.385 262.084 175.762 260.53 175.762H258.042V181.986H258.041ZM258.975 176.385H260.53C261.153 176.385 261.774 176.696 261.774 177.318C261.774 178.25 260.842 178.562 260.219 178.562H258.975V176.385Z" fill="#325E9E"/>
</svg>
