<svg width="275" height="275" viewBox="0 0 275 275" fill="none" xmlns="http://www.w3.org/2000/svg">
<path fill-rule="evenodd" clip-rule="evenodd" d="M0 0H275V275H0V0Z" fill="white"/>
<path fill-rule="evenodd" clip-rule="evenodd" d="M4.04321 120.714V125.587H12.0369L27.6804 154.925H46.9305L62.5739 125.539L70.5662 125.489L70.5833 120.714H46.6694V125.506H53.0381L41.9913 146.363L30.0429 125.579L38.7585 125.539L38.7428 120.714H4.04321ZM158.319 120.714V125.587H166.31L181.957 154.925H201.205L216.849 125.539L224.844 125.489L224.857 120.714H200.947V125.506H207.313L196.268 146.363L184.319 125.579L193.033 125.539L193.019 120.714H158.319ZM118.987 120.714V125.587H126.981L126.993 149.54H118.568V154.881L126.998 154.925H166.908V139.001H161.708C161.424 147.433 154.109 149.551 151.031 149.551C148.206 149.551 142.736 149.54 142.736 149.54V125.579L150.608 125.539L150.597 120.714H118.987ZM92.079 119.732C78.4928 119.732 67.4803 127.822 67.4803 137.797C67.4803 147.772 78.4928 155.861 92.079 155.861C105.665 155.861 116.679 147.772 116.679 137.797C116.679 127.822 105.665 119.732 92.079 119.732ZM91.7266 150.544C86.9373 150.544 83.0567 144.808 83.0567 137.727C83.0567 130.645 86.9373 124.904 91.7266 124.904C96.5145 124.904 100.398 130.645 100.398 137.727C100.398 144.808 96.5145 150.544 91.7266 150.544ZM246.358 119.139C232.772 119.139 221.759 127.358 221.759 137.499C221.759 147.635 232.772 155.856 246.358 155.856C259.941 155.856 270.957 147.635 270.957 137.499C270.957 127.359 259.941 119.139 246.358 119.139ZM246.004 150.453C241.218 150.453 237.336 144.621 237.336 137.424C237.336 130.228 241.218 124.395 246.004 124.395C250.794 124.395 254.673 130.227 254.673 137.424C254.673 144.621 250.794 150.453 246.004 150.453Z" fill="#2761AB"/>
</svg>
