<svg width="269" height="265" viewBox="0 0 269 265" fill="none" xmlns="http://www.w3.org/2000/svg">
<path d="M269 0H0V269H269V0Z" fill="#E91E25"/>
<path d="M179.333 75.9177C166.78 72.331 151.835 68.7444 134.5 68.7444C117.164 68.7444 102.22 71.1355 89.6665 75.9177C56.191 86.0799 33.4754 109.393 33.4754 134.5C33.4754 170.367 78.3087 200.255 134.5 200.255C190.691 200.255 235.524 171.562 235.524 134.5C235.524 109.393 212.809 86.0799 179.333 75.9177ZM134.5 171.562C126.729 171.562 119.555 155.422 119.555 134.5C124.338 134.5 129.718 135.695 134.5 135.695C140.478 135.695 144.662 135.695 149.444 134.5C150.64 155.422 143.467 171.562 134.5 171.562ZM120.751 118.36C123.142 103.415 128.522 94.4488 135.695 94.4488C142.869 94.4488 148.249 104.611 150.64 118.36C145.858 118.36 141.673 119.555 135.695 119.555C129.718 119.555 125.533 119.555 120.751 118.36ZM158.411 117.164C154.824 94.4488 145.858 78.3088 135.695 78.3088C125.533 78.3088 115.969 94.4488 112.98 117.164C92.0576 113.578 78.3087 107.002 78.3087 97.4377C78.3087 86.0799 104.611 76.5155 136.891 76.5155C169.171 76.5155 195.473 85.4822 195.473 97.4377C193.082 107.002 179.333 114.773 158.411 117.164ZM48.4198 132.109C48.4198 120.751 53.2021 109.991 59.7776 102.22V103.415C59.7776 117.164 80.6998 128.522 109.393 133.304C109.393 134.5 109.393 135.695 109.393 136.891C109.393 161.998 116.567 185.311 126.729 191.887C82.4932 189.495 48.4198 163.193 48.4198 132.109ZM142.271 191.887C152.433 184.115 159.607 161.998 159.607 136.891C159.607 135.695 159.607 134.5 159.607 133.304C188.3 129.718 209.222 117.164 209.222 103.415C209.222 102.22 209.222 102.22 209.222 101.024C216.395 109.991 220.58 120.751 220.58 130.913C220.58 163.193 186.507 189.495 142.271 191.887Z" fill="white"/>
</svg>
