<svg width="285" height="269" viewBox="0 0 285 269" fill="none" xmlns="http://www.w3.org/2000/svg">
<g clip-path="url(#clip0_64_228)">
<path fill-rule="evenodd" clip-rule="evenodd" d="M0 0H285V285H0V0Z" fill="white"/>
<path fill-rule="evenodd" clip-rule="evenodd" d="M13.1931 212.551L13.1044 213.972H14.4336C15.4095 213.972 16.65 214.059 16.65 215.3L16.2064 239.326C16.2064 240.213 15.7629 241.189 13.9901 241.189H12.6623L12.5736 242.607H21.5277V241.189H20.0211C18.8678 241.189 18.0709 240.834 18.0709 239.326L18.513 216.275L28.0896 241.099H29.0639L38.7277 216.009L39.1713 239.326C39.1713 240.123 38.3729 241.189 37.1324 241.189H35.2709V242.607H46.5301V241.189H45.1994C44.225 241.189 43.0717 240.655 43.0717 239.413L42.6282 215.656C42.6282 214.859 43.5153 213.972 44.401 213.972H46.085V212.551H38.018L29.6834 234.363L21.3503 212.551H13.1931ZM51.1387 231.79H64.4738C64.4738 225.488 61.6897 220.38 55.5714 220.38C49.8982 220.38 46.669 225.488 46.669 231.79C46.669 238.092 49.3645 243.2 55.5714 243.2C61.5995 243.2 63.3737 240.213 64.2978 235.435L62.2205 235.426C62.043 237.198 60.8913 241.189 56.4586 241.276C51.4063 241.377 51.05 234.893 51.1387 231.79ZM75.3426 242.607V241.455H74.4555C73.6571 241.455 72.2392 241.189 72.2392 239.592V227.978C72.2392 224.342 74.1006 223.015 75.9621 223.015C76.6704 223.015 77.1154 223.37 76.938 224.699C76.7606 226.029 77.9138 226.917 78.8882 226.826C79.8626 226.736 81.1046 226.56 80.9271 224.078C80.7497 221.597 79.3318 220.445 76.8493 220.445C74.8991 220.445 73.3022 221.684 72.8587 222.305C72.3426 223.027 71.7069 222.75 71.6182 221.953C71.5294 221.153 71.1746 220.356 70.2889 220.622C68.3372 221.243 66.5645 221.51 65.0578 221.598V222.485C68.7823 222.306 68.426 224.169 68.426 225.055V239.595C68.426 241.192 67.008 241.458 66.2096 241.458H64.9691V242.61H75.3426V242.607ZM95.0089 221.792C93.7018 220.838 92.0592 220.293 90.0587 220.293C84.3855 220.293 81.1563 225.401 81.1563 231.703C81.1563 238.004 83.8517 243.08 90.0587 243.113C95.5559 243.139 96.8851 240.034 97.8107 235.259L95.7319 235.25C95.5545 237.023 94.9335 241.1 90.9443 241.191C85.8921 241.3 85.5358 234.806 85.6245 231.704C85.6245 229.752 85.8906 221.952 90.1459 221.952C93.7802 221.952 95.998 224.521 95.998 227.447H97.1498V220H96.1754L95.0089 221.792ZM136.871 237.995V213.261C136.871 212.242 136.339 211.398 135.453 211.664C133.503 212.285 131.729 212.551 130.222 212.64V213.527C132.793 213.351 133.059 214.148 133.059 215.035V222.658C131.906 221.595 130.577 220.531 128.183 220.531C125.168 220.531 119.584 222.924 119.584 231.348C119.584 242.428 126.056 243.139 128.006 243.139C129.956 243.139 132.527 241.545 133.059 240.703C133.104 240.524 133.368 240.303 133.459 240.703C133.547 241.5 134.123 242.699 135.01 242.43C136.706 241.889 138.463 241.562 140.241 241.457V240.57C136.516 240.744 136.871 238.881 136.871 237.995ZM188.646 229.93V227.888H176.944V229.93H188.646ZM160.896 235.069V242.607H161.872L162.759 240.655C163.646 241.455 165.505 242.783 167.9 242.783C170.295 242.783 173.663 241.455 174.993 238.971C176.323 236.487 175.702 232.409 172.688 231.169C170.048 230.084 167.731 228.781 165.95 227.888C164.532 227.18 164.189 225.762 164.353 224.876C164.619 223.458 165.861 221.95 168.698 221.861C171.534 221.771 172.952 224.166 173.307 226.915H174.283V219.822H173.396L172.42 221.507C170.557 220.265 169.76 220.089 168.076 220.089C166.389 220.089 163.553 220.976 161.956 223.458C160.362 225.939 160.804 229.84 164.616 231.437C168.428 233.03 170.204 234.006 171.267 234.539C172.33 235.071 172.951 237.198 172.243 238.44C171.533 239.682 170.204 241.1 168.076 241.1C165.948 241.1 162.577 239.592 161.78 235.071H160.896V235.069ZM192.636 238.084V216.185C192.636 213.97 190.331 213.701 189 213.701V212.549H202.299C208.504 212.549 209.48 216.895 209.48 219.466C209.48 222.037 207.352 225.848 205.223 226.383C209.48 227.27 210.898 230.727 210.898 233.651C210.722 242.341 203.184 242.607 199.903 242.607H188.999V241.365C192.548 241.365 192.636 239.326 192.636 238.084ZM246.892 226.47V239.592C246.892 241.189 245.474 241.455 244.677 241.455H244.146V242.607H253.808V241.455H252.921C252.124 241.455 250.706 241.189 250.706 239.592V226.56C250.616 220.619 245.298 220.443 243.435 220.443C241.486 220.443 239.357 221.683 238.912 222.304C238.397 223.025 237.76 222.749 237.673 221.952C237.583 221.152 237.228 220.355 236.342 220.621C234.394 221.242 232.619 221.508 231.113 221.597V222.484C234.836 222.305 234.479 224.168 234.479 225.054V239.594C234.479 241.191 233.061 241.457 232.264 241.457H231.022V242.608H241.396V241.457H240.509C239.712 241.457 238.291 241.191 238.291 239.594V227.98C238.291 226.031 239.001 222.926 242.636 222.66C246.271 222.392 246.892 224.786 246.892 226.47ZM255.759 226.915L257.355 220.886H272.426L259.483 241.366H266.397C267.994 241.366 269.236 240.746 270.92 236.668H271.629L270.211 242.608H254.784L267.637 222.128H261.877C260.459 222.128 258.862 222.128 256.644 226.915H255.759ZM104.333 231.79H117.668C117.668 225.488 114.882 220.38 108.765 220.38C103.092 220.38 99.863 225.488 99.863 231.79C99.863 238.092 102.56 243.2 108.765 243.2C114.795 243.2 116.568 240.213 117.493 235.435L115.414 235.426C115.237 237.198 114.085 241.189 109.652 241.276C104.6 241.377 104.244 234.893 104.333 231.79ZM144.759 231.79H158.096C158.096 225.488 155.312 220.38 149.195 220.38C143.52 220.38 140.291 225.488 140.291 231.79C140.291 238.092 142.988 243.2 149.195 243.2C155.221 243.2 156.994 240.213 157.918 235.435L155.842 235.426C155.667 237.198 154.515 241.189 150.079 241.276C145.028 241.377 144.673 234.893 144.759 231.79ZM217.284 231.79H230.617C230.617 225.488 227.833 220.38 221.715 220.38C216.043 220.38 212.814 225.488 212.814 231.79C212.814 238.092 215.508 243.2 221.715 243.2C227.744 243.2 229.517 240.213 230.441 235.435L228.365 235.426C228.19 237.198 227.035 241.189 222.602 241.276C217.55 241.377 217.194 234.893 217.284 231.79Z" fill="black"/>
<path fill-rule="evenodd" clip-rule="evenodd" d="M51.2274 230.016C51.2274 228.067 51.05 222.302 55.7489 222.302C59.4719 222.302 60.0041 227.09 60.0041 230.016H51.2274ZM133.058 235.335C132.969 240.213 130.398 241.72 128.27 241.72C123.483 241.63 123.838 234.361 123.838 231.258C123.838 228.156 124.015 222.037 128.359 222.568C132.703 223.102 133.058 227.712 133.058 230.461V235.335ZM196.448 241.189H200.968C204.338 241.189 206.997 238.529 206.997 234.093C206.997 229.664 204.428 227.622 201.502 227.622H196.448V241.189ZM196.448 226.204H200.881C204.338 226.204 205.489 223.278 205.489 219.466C205.489 216.361 204.162 213.97 200.881 213.97H196.448V226.204ZM104.423 230.016C104.423 228.067 104.245 222.302 108.944 222.302C112.669 222.302 113.2 227.09 113.2 230.016H104.423ZM144.849 230.016C144.849 228.067 144.673 222.302 149.372 222.302C153.095 222.302 153.626 227.09 153.626 230.016H144.849ZM217.371 230.016C217.371 228.067 217.195 222.302 221.894 222.302C225.617 222.302 226.151 227.09 226.151 230.016H217.371Z" fill="white"/>
<path fill-rule="evenodd" clip-rule="evenodd" d="M141.582 193.069C99.3425 193.067 65.1022 159.199 65.1096 117.425C65.114 75.6531 99.3632 41.7943 141.603 41.8002C183.843 41.8061 218.081 75.6738 218.075 117.446C218.069 159.219 183.823 193.078 141.582 193.069Z" fill="black"/>
<path fill-rule="evenodd" clip-rule="evenodd" d="M78.8705 153.724L80.2145 152.658C76.2623 145.416 72.7818 134.545 72.5866 134.318C72.4979 134.625 74.0933 144.722 78.8705 153.724Z" fill="black"/>
<path fill-rule="evenodd" clip-rule="evenodd" d="M142.649 49.3157L153.041 109.796L142.188 116.17L141.812 49.3408C141.812 48.538 141.245 48.5454 141.162 49.3408L135.001 112.734L130.441 110.086L140.223 49.3305C102.345 49.567 72.4343 79.9794 72.4299 117.566C72.4284 129.437 76.1632 141.888 81.5378 151.617L129.26 111.919L133.834 114.539L80.2322 153.073C78.9459 153.968 79.3318 154.416 80.7556 153.625L140.591 119.068L140.59 131.511L82.8212 153.548C94.9039 173.315 116.358 185.897 141.382 185.9C166.371 185.903 188.174 173.289 200.274 153.574L142.583 131.553V119.106L200.128 152.297C201.434 153.033 201.828 152.633 200.595 151.751L149.34 114.57L153.911 111.949L201.616 151.683C207.076 141.9 210.695 129.412 210.698 117.439C210.703 80.3387 179.847 50.3285 142.649 49.3157Z" fill="white"/>
<path fill-rule="evenodd" clip-rule="evenodd" d="M214.794 104.269C211.897 88.0227 203.566 76.0198 203.566 76.0198C190.35 56.4201 167.829 43.6292 141.737 43.6262C100.329 43.6203 66.8528 77.1864 66.8469 118.598C66.8454 128.35 69.3338 137.667 72.7197 146.216C74.2751 150.14 80.8754 161.458 81.1741 161.701C81.143 161.343 76.4856 152.287 74.0356 146.263C71.9361 141.098 69.322 130.805 69.3235 118.867C69.3279 78.6945 101.899 46.1324 142.068 46.1383C163.059 46.1412 182.78 56.3891 194.882 69.6739C197.461 72.5038 199.69 75.0721 201.687 77.6832C201.687 77.6817 206.949 82.6068 214.794 104.269Z" fill="white"/>
<path fill-rule="evenodd" clip-rule="evenodd" d="M212.452 117.245C212.452 129.679 208.556 142.565 202.812 152.674C203.132 153.508 202.832 153.937 201.858 154.184C189.342 174.349 166.991 187.546 141.545 187.543C117.672 187.54 98.5751 174.715 92.5382 168.088C87.6383 162.71 84.007 158.689 81.2021 154.123L79.5595 154.756C90.2997 175.294 112.831 190.22 141.57 190.223C182.357 190.229 214.924 157.247 214.927 117.437C214.927 117.437 216.191 104.642 205.083 86.4318C205.083 86.4318 212.827 100.531 212.452 117.245Z" fill="white"/>
<path fill-rule="evenodd" clip-rule="evenodd" d="M136.824 116.315L126.645 124.626C126.645 124.626 124.497 126.4 127.58 124.812L139.905 118.089L136.824 116.315ZM137.85 114.261L140.838 68.8799C140.838 68.8799 141.118 63.3708 141.398 68.973C141.673 74.4791 140.838 116.222 140.838 116.222L137.85 114.261ZM143.266 118.089L146.535 116.222L185.192 142.089C185.192 142.089 188.088 144.049 184.819 142.368L143.266 118.089Z" fill="black"/>
</g>
<defs>
<clipPath id="clip0_64_228">
<rect width="285" height="285" fill="white"/>
</clipPath>
</defs>
</svg>
