<svg width="290" height="290" viewBox="0 0 290 290" fill="none" xmlns="http://www.w3.org/2000/svg">
<path fill-rule="evenodd" clip-rule="evenodd" d="M0 0H289.191V289.191H0V0Z" fill="white"/>
<path fill-rule="evenodd" clip-rule="evenodd" d="M144.333 197.637C221.813 197.637 284.632 173.92 284.632 144.594C284.632 115.268 221.813 91.4612 144.333 91.4612C66.7632 91.4612 3.94431 115.268 3.94431 144.594C3.94431 173.922 66.7632 197.637 144.333 197.637Z" fill="#425E99"/>
<path fill-rule="evenodd" clip-rule="evenodd" d="M144.333 192.206C69.9302 192.206 9.46682 171.025 9.46682 144.594C9.46682 118.255 69.9302 96.8021 144.333 96.8021C218.917 96.8021 279.289 118.255 279.289 144.594C279.289 171.025 218.917 192.206 144.333 192.206Z" fill="white"/>
<path fill-rule="evenodd" clip-rule="evenodd" d="M144.333 188.496C216.473 188.496 275.034 168.854 275.034 144.594C275.034 120.427 216.473 100.785 144.333 100.785C72.1027 100.785 13.7202 120.427 13.7202 144.594C13.7217 168.854 72.1027 188.496 144.333 188.496Z" fill="#425E99"/>
<path fill-rule="evenodd" clip-rule="evenodd" d="M178.55 153.374C184.704 147.581 188.141 141.517 197.014 141.607C202.354 141.697 203.71 145.952 204.615 147.763L216.291 128.031H223.442L204.073 162.336C203.71 163.06 202.804 164.417 202.895 165.504C203.08 167.223 205.251 166.771 204.436 166.771C208.328 166.59 215.477 159.168 217.198 157.359C217.558 156.904 218.194 156.091 218.554 156.091C218.917 156.091 219.642 156.452 219.642 156.995C219.642 157.359 218.827 158.715 218.194 159.529C214.572 164.056 208.599 171.025 201.811 171.206C198.462 171.206 197.193 169.848 196.741 167.224C195.203 168.581 189.952 170.935 184.613 170.935C180.176 170.845 178.365 168.219 177.462 166.138C176.648 164.419 176.285 161.885 176.918 159.351C174.474 160.619 172.211 160.799 168.953 160.709C165.149 160.617 162.795 158.898 161.621 154.461C157.276 162.428 157.093 162.698 152.659 171.026H144.966L154.832 154.281C156.101 152.017 156.734 150.208 157.184 148.309C157.457 147.221 156.643 146.225 155.465 146.136C154.199 146.136 152.119 147.404 150.125 149.303C150.125 149.303 145.057 154.734 141.346 160.256C137.814 165.507 131.751 171.479 125.144 171.479C120.346 171.479 116.001 168.855 115.097 163.786C115.097 163.786 114.643 164.962 110.389 167.406C110.027 167.586 109.122 168.129 108.852 167.949C108.036 167.226 107.585 166.32 107.493 165.685C107.765 165.777 108.308 165.324 110.027 163.966C113.376 161.432 114.1 159.438 114.1 159.438C114.913 157.719 116.364 155.003 117.359 153.102C120.076 147.671 124.781 142.15 132.474 141.878C133.742 141.878 134.104 142.422 134.375 142.875C135.098 143.418 134.828 144.504 134.828 144.504C129.397 145.319 125.687 148.486 123.423 151.564C122.067 153.555 120.618 156.814 120.346 159.166C119.803 163.24 121.704 165.954 124.509 166.588C129.759 167.403 134.104 163.601 137.544 157.719C138.45 156.179 139.083 152.196 139.083 150.024C139.083 147.851 137.906 145.589 137.001 144.683C137.001 143.145 137.996 142.149 139.172 142.149C139.533 142.149 139.896 142.149 140.258 142.51C142.069 144.321 143.065 147.761 143.065 150.385C143.065 151.291 143.065 152.196 142.883 153.102C146.685 148.486 151.482 142.512 155.195 141.335C155.918 140.974 156.643 140.974 157.366 140.974C164.155 140.792 163.25 146.948 163.25 146.948C166.869 142.785 169.404 141.245 172.753 141.425C176.375 141.607 177.641 144.142 177.641 146.133C177.549 148.486 175.833 151.201 172.847 151.291C170.219 151.291 168.681 150.024 167.866 147.671C166.147 148.306 165.334 149.482 164.971 151.834C164.426 154.822 166.69 157.175 169.586 157.175C174.565 157.177 176.739 155.003 178.55 153.374ZM183.98 114.363C183.98 117.26 173.841 122.781 165.241 122.781C151.846 122.781 137.907 116.354 131.483 114.906C124.512 113.277 118.177 111.919 113.197 111.919C95.7277 111.919 87.9427 119.433 88.3057 126.311C88.4873 129.117 90.7482 130.928 94.0984 130.293C97.7201 129.66 102.788 126.22 104.056 123.233C104.327 122.6 105.052 122.508 105.324 122.69C105.867 123.143 105.685 123.776 105.685 123.776C105.232 127.306 99.801 137.082 90.3881 137.082C85.1386 137.082 81.6084 132.194 81.6984 127.396C81.7884 118.435 90.9312 109.384 113.469 109.384C117.722 109.384 122.52 109.745 127.771 110.651C133.834 111.738 148.949 114.272 161.259 114.453C165.787 114.453 171.58 114.635 176.286 113.91C181.264 113.095 180.178 112.914 182.17 112.914C183.98 112.914 183.98 113.638 183.98 114.363Z" fill="white"/>
<path fill-rule="evenodd" clip-rule="evenodd" d="M197.378 145.862C194.207 145.5 190.224 148.216 186.967 152.199C185.338 154.19 183.618 157.992 183.345 160.254C182.985 162.518 183.618 164.78 184.433 165.414C185.248 166.047 188.869 167.948 194.48 162.246C197.648 159.078 200.725 153.918 200.725 153.918L199.729 153.645C201.629 150.117 201.265 146.313 197.378 145.862Z" fill="#425E99"/>
<path fill-rule="evenodd" clip-rule="evenodd" d="M131.21 135.181C131.21 136.177 132.566 136.992 133.744 137.084C133.472 138.078 133.562 138.531 133.111 138.441C130.395 138.441 129.309 135.816 129.309 135.816C125.69 136.449 122.16 136.902 115.008 137.627C96.9957 166.773 91.3845 171.571 80.3409 171.571C72.4658 171.571 65.4969 166.411 65.3154 157.179C65.2239 151.567 69.7503 144.687 78.1684 142.605C79.1646 142.605 79.5262 142.968 79.5262 143.511C79.5262 143.874 79.1646 144.325 78.3485 144.687C75.9045 145.593 71.6512 150.39 71.6512 154.826C71.6512 158.175 73.7336 161.886 77.2623 162.7C78.2585 162.973 79.1646 162.881 80.0693 162.881C88.849 162.881 98.715 153.015 109.396 137.99C107.676 138.08 100.344 138.896 98.5335 140.977C97.7203 141.61 97.1772 141.248 96.9957 140.524C96.9957 140.342 97.2672 139.709 97.5403 139.346C100.436 136.087 109.126 135.364 111.206 135.093C119.353 122.601 129.852 114.816 132.025 114.908C132.386 114.908 133.202 115.451 132.839 116.355C132.748 116.537 131.843 117.532 131.483 117.803C129.672 119.433 123.516 123.416 116.819 134.73C122.25 134.458 128.586 133.372 128.586 133.372C128.586 133.372 128.224 132.196 128.224 131.199C128.496 127.308 130.758 124.954 133.655 125.407C135.286 125.678 136.371 127.036 136.371 128.484C136.371 130.023 135.195 132.286 134.017 133.372C133.201 134.003 132.295 134.638 131.21 135.181Z" fill="white"/>
<path fill-rule="evenodd" clip-rule="evenodd" d="M130.755 133.189C130.755 133.189 131.661 133.28 133.018 131.741C133.561 131.198 134.467 129.568 134.285 128.482C134.194 127.939 133.924 127.306 133.291 127.396C131.931 127.669 131.117 128.302 130.755 129.66C130.304 131.108 130.485 132.104 130.755 133.189Z" fill="#425E99"/>
</svg>
