<svg width="30" height="30" viewBox="0 0 30 30" fill="none" xmlns="http://www.w3.org/2000/svg">
<circle cx="15" cy="15" r="14.5" stroke="black"/>
<path d="M10.1111 8C7.8406 8 6 9.84047 6 12.1108V17.5215C6 19.7919 7.8406 21.6323 10.1111 21.6323V24.3414C10.1111 24.4273 10.2102 24.4753 10.2776 24.4221L13.8111 21.6323H20.3888C22.6593 21.6323 24.4999 19.7919 24.4999 17.5215V12.1108C24.4999 9.84047 22.6593 8 20.3888 8H10.1111Z" stroke="black" stroke-linecap="round"/>
<path d="M12.1666 15.1945C12.1666 15.7622 11.7065 16.2223 11.1389 16.2223C10.5712 16.2223 10.1111 15.7622 10.1111 15.1945C10.1111 14.6269 10.5712 14.1667 11.1389 14.1667C11.7065 14.1667 12.1666 14.6269 12.1666 15.1945Z" fill="black"/>
<path d="M16.2777 15.1945C16.2777 15.7622 15.8176 16.2223 15.2499 16.2223C14.6823 16.2223 14.2222 15.7622 14.2222 15.1945C14.2222 14.6269 14.6823 14.1667 15.2499 14.1667C15.8176 14.1667 16.2777 14.6269 16.2777 15.1945Z" fill="black"/>
<path d="M20.3888 15.1945C20.3888 15.7622 19.9287 16.2223 19.361 16.2223C18.7934 16.2223 18.3333 15.7622 18.3333 15.1945C18.3333 14.6269 18.7934 14.1667 19.361 14.1667C19.9287 14.1667 20.3888 14.6269 20.3888 15.1945Z" fill="black"/>
<circle cx="21.625" cy="8.5" r="2.5" fill="#FB7777"/>
</svg>
