<svg width="35" height="36" viewBox="0 0 35 36" fill="none" xmlns="http://www.w3.org/2000/svg">
<path d="M34.878 18.1903C34.878 16.7272 34.7593 15.6595 34.5024 14.5523H17.7949V21.1561H27.6018C27.4042 22.7973 26.3365 25.2688 23.9638 26.9295L23.9305 27.1506L29.2131 31.243L29.5791 31.2795C32.9403 28.1753 34.878 23.6079 34.878 18.1903Z" fill="#4285F4"/>
<path d="M17.7949 35.5898C22.5994 35.5898 26.6329 34.0079 29.5791 31.2795L23.9637 26.9295C22.4611 27.9774 20.4443 28.709 17.7949 28.709C13.0892 28.709 9.09522 25.6049 7.6715 21.3143L7.46281 21.3321L1.96991 25.5831L1.89807 25.7828C4.82431 31.5957 10.835 35.5898 17.7949 35.5898Z" fill="#34A853"/>
<path d="M7.6715 21.3144C7.29584 20.2071 7.07843 19.0207 7.07843 17.7949C7.07843 16.569 7.29584 15.3827 7.65174 14.2755L7.64179 14.0396L2.08005 9.72034L1.89808 9.80689C0.692032 12.2191 0 14.928 0 17.7949C0 20.6618 0.692032 23.3705 1.89808 25.7828L7.6715 21.3144Z" fill="#FBBC05"/>
<path d="M17.7949 6.88065C21.1363 6.88065 23.3903 8.32401 24.6755 9.53019L29.6976 4.62667C26.6133 1.75973 22.5994 0 17.7949 0C10.8351 0 4.82431 3.99394 1.89807 9.80689L7.65173 14.2754C9.09523 9.98491 13.0892 6.88065 17.7949 6.88065Z" fill="#EB4335"/>
</svg>
