<svg width="51" height="51" viewBox="0 0 51 51" fill="none" xmlns="http://www.w3.org/2000/svg">
<path d="M21.0734 17.1486C20.8416 17.2488 20.6122 17.3419 20.3851 17.4257L20.3744 17.427C19.8326 17.4948 19.0666 17.6756 18.5117 17.7999C17.7675 17.9656 17.0935 18.327 16.5399 18.457C16.1292 18.538 15.7117 18.58 15.2931 18.5826C14.6179 18.5813 13.0209 18.324 12.2433 18.1808L12.121 18.1582C11.8019 20.4392 10.36 27.2851 9.58093 29.7591C9.87247 29.782 10.3099 29.8204 10.916 29.8895C11.294 29.9406 11.666 30.0294 12.0264 30.1546C12.0703 30.1693 12.1136 30.185 12.1565 30.2019C12.1565 30.2019 16.0628 32.0097 17.2904 32.8467C18.6408 33.7673 24.5025 37.3581 24.5025 37.3581C25.2287 37.7489 25.9803 38.0904 26.7524 38.3801C27.3642 38.5862 28.0226 38.6113 28.6483 38.4523C29.2249 38.2765 29.5087 37.8529 29.5358 37.4195L29.522 37.1972C30.0493 37.4202 31.2411 37.6281 32.0631 36.9387C32.436 36.6261 32.657 35.9157 32.4928 35.4656L32.4581 35.321C33.217 35.7431 34.5666 35.763 35.3572 34.8109C35.8029 34.2745 35.6874 33.225 35.0131 32.6096L35.0912 32.6625C36.2309 33.0332 37.2805 32.5091 37.6282 31.926C37.9597 31.3708 38.1041 30.4525 37.4242 29.7289C38.0682 29.3112 38.872 28.8993 39.5487 28.4827C40.0905 28.1398 40.6526 27.8301 41.2319 27.5555C40.4336 24.745 39.1865 18.8616 38.8647 16.6695C38.3802 16.7838 37.8375 16.8929 37.2106 16.9924C36.3654 17.1457 28.9118 15.6168 26.7643 15.3862C24.7094 15.2561 22.8259 16.3904 21.0734 17.1486Z" fill="#F6F6F6"/>
<path d="M14.8134 32.7607C15.1079 32.0797 15.5122 31.4517 16.0104 30.9019C16.2673 30.583 16.5805 30.314 16.9346 30.1082C17.2431 29.9559 17.5881 29.8929 17.9306 29.9264C18.273 29.9599 18.5992 30.0886 18.8724 30.2979C19.411 30.7228 19.6205 31.5278 19.4561 32.1899C19.2918 32.852 18.0356 34.7319 17.2753 35.2034C17.0562 35.329 16.8119 35.4047 16.5601 35.425C16.3083 35.4453 16.0552 35.4097 15.8187 35.3208C15.2841 35.0963 15.0123 34.796 14.7715 34.2681C14.5867 33.8635 14.6133 33.2282 14.8134 32.7607Z" fill="#F6F6F6"/>
<path d="M18.3579 34.6105C18.5878 33.9296 18.9281 33.2911 19.3651 32.7206C19.5876 32.3923 19.8685 32.1076 20.1937 31.8807C20.4794 31.709 20.8075 31.6208 21.1407 31.6258C21.474 31.6309 21.7992 31.7291 22.0796 31.9093C22.6329 32.2765 22.8999 33.0369 22.794 33.6888C22.6881 34.3406 21.6255 36.2561 20.9296 36.7718C20.728 36.9106 20.4983 37.0032 20.2568 37.0428C20.0154 37.0825 19.7681 37.0683 19.5328 37.0014C18.9987 36.8273 18.7124 36.5586 18.4377 36.0687C18.2268 35.6928 18.2023 35.078 18.3579 34.6105Z" fill="#F6F6F6"/>
<path d="M21.4134 37.0407C21.5203 36.4482 21.9605 35.4163 22.4343 34.998C22.6473 34.8207 22.9063 34.7076 23.1812 34.6721C23.456 34.6366 23.7353 34.6801 23.9863 34.7975C24.4843 35.0335 24.7321 35.7308 24.7229 36.2786C24.7136 36.8265 24.2922 38.0041 23.7817 38.5103C23.6326 38.6482 23.455 38.7514 23.2614 38.8127C23.0678 38.874 22.8631 38.8917 22.6619 38.8647C22.4583 38.8355 22.2632 38.7639 22.0892 38.6543C21.9152 38.5447 21.7662 38.3997 21.6519 38.2287C21.4241 37.8775 21.3388 37.4526 21.4134 37.0407Z" fill="#F6F6F6"/>
<path d="M11.426 32.0801C11.2558 31.6393 11.396 30.8692 11.6769 30.522C12.13 29.9616 13.1305 30.0973 13.6703 30.4364C14.0682 30.6862 14.5956 31.2468 14.7134 31.5216C15.0703 32.2688 14.717 32.9242 14.4528 33.1288C14.1428 33.3689 13.3832 33.4481 12.996 33.3866C12.6456 33.3183 12.3181 33.1627 12.0437 32.9344C11.7693 32.7061 11.5568 32.4123 11.426 32.0801Z" fill="#F6F6F6"/>
<path d="M0.360287 13.6725C3.53865 14.5392 8.82726 15.9203 10.1796 16.3311C8.87559 21.4054 7.84022 28.5464 6.73786 31.4314C5.6257 31.1744 2.22747 30.3016 0.22522 29.8018" fill="black"/>
<path d="M50.6397 12.099C47.4615 12.9659 42.1728 14.3468 40.8204 14.7577C42.1244 19.8319 43.1598 26.9732 44.2629 29.8584C45.3752 29.6014 48.7732 28.7287 50.7755 28.2288" fill="black"/>
<path d="M39.6875 15.736C40.1148 15.6004 40.5979 15.4558 40.9262 15.3612L40.969 15.3486C42.0212 19.6299 42.9024 25.1371 43.7953 28.3884C43.7558 28.3997 43.7351 28.406 43.7351 28.406C43.1776 28.5744 42.3162 28.704 41.6701 28.8739C40.947 27.3029 38.8997 17.6754 38.7908 16.0537C39.0834 15.9309 39.3828 15.8249 39.6875 15.736Z" fill="#F6F6F6"/>
<path d="M7.23411 29.8539C8.11799 26.5911 8.98971 21.1607 10.0298 16.9272C10.0574 16.9323 10.0738 16.9345 10.0738 16.9345C10.7243 17.1218 11.9434 17.5086 12.1799 17.6377C12.0711 19.2595 10.0531 28.8761 9.32986 30.4472C8.68381 30.2773 7.82244 30.1477 7.26491 29.9793L7.20483 29.9614C7.21469 29.9259 7.22445 29.89 7.23411 29.8539Z" fill="#F6F6F6"/>
<path d="M25.9127 21.0236C25.3815 20.9169 24.7867 21.0375 24.2648 21.1381C23.9428 21.1991 23.6249 21.2797 23.3127 21.3794C23.0112 21.4772 22.636 21.5866 22.4036 21.8122C22.2804 21.95 22.1811 22.1074 22.1098 22.2779C22.0213 22.4518 21.9346 22.6264 21.8474 22.8008C21.6909 23.1139 21.5335 23.427 21.3596 23.7308C21.034 24.332 20.5918 24.8622 20.0588 25.2904C19.8192 25.492 19.5254 25.6184 19.2143 25.6536C18.925 25.7086 18.6265 25.6894 18.3467 25.5977C18.0705 25.484 17.7784 25.2255 17.7414 24.9121C17.7343 24.7253 17.7418 24.5381 17.7636 24.3524C17.7728 24.1257 17.7802 23.899 17.7859 23.6721C17.8034 22.9584 17.8024 22.2435 17.8596 21.5315C17.8898 21.1562 17.9367 20.7833 18.0002 20.4128C18.0679 20.017 18.1343 19.5947 18.3214 19.2348C18.6667 18.571 19.3731 18.1099 20.0683 17.8837C20.7804 17.6387 21.4768 17.3505 22.1537 17.0207C23.5583 16.3656 25.0335 15.6547 26.6223 15.7107C26.7253 15.7143 26.8264 15.7245 26.9286 15.7366C26.966 15.7412 27.0033 15.7458 27.0406 15.7504L27.0991 15.758C27.1243 15.7613 27.115 15.76 27.0715 15.7541L27.1208 15.7609C27.3127 15.7875 27.5043 15.8156 27.6956 15.8452C28.179 15.9198 28.6601 16.0007 29.1414 16.0832C30.2716 16.2765 31.3999 16.48 32.5293 16.677C33.564 16.8578 34.5992 17.0393 35.6392 17.1869C36.0032 17.2387 36.3682 17.2897 36.7348 17.319C37.0765 17.3362 37.4191 17.3079 37.7534 17.235C38.1555 17.1638 38.5554 17.082 38.9531 16.9896C39.3684 16.8929 39.1926 16.2538 38.7769 16.3503C38.3583 16.4475 37.9373 16.5331 37.5141 16.6069C37.3948 16.6277 37.275 16.646 37.1558 16.6668C37.0329 16.6882 37.2216 16.6703 37.1581 16.6668C37.1166 16.6646 37.072 16.6711 37.0296 16.6708C36.7333 16.6625 36.4377 16.6362 36.1445 16.5921L36.0111 16.5749C35.9221 16.5631 36.0586 16.5813 36.0024 16.5736L35.9317 16.5639C35.8171 16.548 35.7028 16.5316 35.5886 16.5146C35.352 16.4796 35.1157 16.4432 34.8796 16.4053C34.328 16.317 33.7772 16.2234 33.2267 16.1282C31.1322 15.7662 29.0399 15.3294 26.9291 15.073C25.3824 14.8851 23.8468 15.516 22.4715 16.1451C21.7663 16.4675 21.0714 16.8183 20.3447 17.089C19.9739 17.2079 19.6099 17.3473 19.2546 17.5066C18.8921 17.6892 18.5605 17.9278 18.2721 18.2135C17.9625 18.517 17.7263 18.8873 17.5816 19.2961C17.4524 19.7051 17.3621 20.1253 17.3119 20.5513C17.2077 21.2981 17.1509 22.0507 17.1417 22.8046C17.134 23.1795 17.1286 23.5543 17.1173 23.929C17.1105 24.1559 17.1013 24.3827 17.0897 24.6093C17.0478 24.9175 17.1058 25.231 17.2553 25.5037C17.4048 25.7765 17.6378 25.9941 17.9201 26.1246C18.2442 26.2879 18.6063 26.3607 18.9683 26.3353C19.3344 26.3334 19.696 26.2553 20.0302 26.1059C20.3642 25.9202 20.6677 25.6843 20.9301 25.4064C21.4218 24.8965 21.8314 24.3134 22.1443 23.6779C22.321 23.3417 22.4866 22.9998 22.6584 22.661C22.7235 22.5324 22.7809 22.3463 22.9018 22.2618C23.0204 22.1885 23.148 22.131 23.2814 22.0906C23.8845 21.8711 24.5135 21.7305 25.1527 21.6722C25.2759 21.6609 25.3998 21.6526 25.5235 21.652C25.5714 21.652 25.6195 21.652 25.6674 21.6553C25.6923 21.6569 25.717 21.6591 25.7417 21.6616C25.6479 21.6522 25.7162 21.6587 25.7373 21.6629C25.822 21.6841 25.9115 21.6718 25.9874 21.6287C26.0633 21.5857 26.1197 21.515 26.145 21.4315C26.1675 21.3467 26.1559 21.2565 26.1126 21.1803C26.0693 21.104 25.9978 21.0478 25.9135 21.0236H25.9127Z" fill="black"/>
<path d="M25.7361 21.6625C25.7651 21.6732 25.8549 21.717 25.7439 21.6635C25.7701 21.6762 25.7974 21.6873 25.8238 21.6997C25.8894 21.7308 25.9536 21.7647 26.0172 21.8C26.1709 21.8854 26.32 21.9795 26.4675 22.0746C26.927 22.3728 27.3732 22.6916 27.821 23.0077C29.3263 24.0723 30.8448 25.1207 32.3421 26.1967C33.1835 26.8015 34.0157 27.4187 34.8389 28.0484C35.2467 28.3614 35.651 28.6794 36.0516 29.0023C36.2542 29.1655 36.4559 29.3301 36.6567 29.4959C36.8675 29.654 37.0642 29.8299 37.2449 30.0218C37.4433 30.2703 37.5577 30.5753 37.5717 30.893C37.5857 31.2106 37.4985 31.5246 37.3228 31.7895C37.1335 32.0439 36.87 32.2334 36.5686 32.3319C36.3779 32.4006 36.1782 32.441 35.9758 32.452C35.727 32.4778 35.4755 32.4469 35.2403 32.3616C35.1088 32.286 34.983 32.201 34.8639 32.1072C34.6969 31.9928 34.5302 31.8782 34.3637 31.7634C33.987 31.5037 33.6107 31.2431 33.235 30.9815C32.5677 30.5174 31.9021 30.0513 31.2381 29.5832C31.162 29.5395 31.0719 29.5276 30.9871 29.5498C30.9023 29.5721 30.8296 29.6267 30.7847 29.7021C30.7422 29.7784 30.7308 29.8682 30.7529 29.9528C30.7751 30.0373 30.8291 30.11 30.9036 30.1556C32.1689 31.0505 33.4414 31.9355 34.7211 32.8106C34.8956 32.9352 35.0951 33.0204 35.3059 33.0602C35.5628 33.1128 35.8258 33.1286 36.0871 33.1072C36.5498 33.0723 36.9949 32.915 37.3768 32.6515C37.6851 32.4232 37.9258 32.1157 38.0735 31.7617C38.2211 31.4076 38.2701 31.0202 38.2153 30.6405C38.1518 30.1905 37.9433 29.7736 37.6215 29.4528C37.2241 29.0818 36.8057 28.734 36.3685 28.4109C35.4975 27.714 34.6118 27.0357 33.7113 26.3761C32.0652 25.1638 30.3779 24.0091 28.71 22.8268C28.174 22.4468 27.6399 22.0635 27.0955 21.6955C26.7946 21.4791 26.4771 21.2866 26.1459 21.1201C26.0698 21.0846 25.9923 21.051 25.9135 21.0224C25.8287 20.9998 25.7385 21.0114 25.6623 21.0547C25.586 21.098 25.5298 21.1696 25.5058 21.2539C25.4843 21.3386 25.4964 21.4283 25.5395 21.5043C25.5826 21.5804 25.6535 21.6367 25.7372 21.6617L25.7361 21.6625Z" fill="black"/>
<path d="M24.3352 37.6437C25.0058 38.0138 25.7015 38.3365 26.4172 38.6093C27.2388 38.927 28.3341 39.0651 29.1308 38.6019C29.3413 38.4803 29.5185 38.3088 29.6469 38.1024C29.7754 37.8961 29.851 37.6613 29.8672 37.4188C29.8665 37.3311 29.8314 37.2472 29.7693 37.1852C29.7073 37.1232 29.6234 37.0881 29.5357 37.0874C29.4484 37.0891 29.365 37.1246 29.3032 37.1863C29.2414 37.2481 29.206 37.3315 29.2043 37.4188C29.1731 37.8035 28.8386 38.0649 28.4567 38.1606C27.9369 38.2738 27.3961 38.2446 26.8914 38.0761C26.5077 37.9466 26.1325 37.7929 25.7682 37.6159C25.3971 37.4456 25.0265 37.2707 24.6699 37.0712C24.297 36.863 23.9623 37.4353 24.3352 37.6437Z" fill="black"/>
<path d="M12.1552 18.5002C13.128 18.7 14.1127 18.8363 15.1032 18.9082C15.6151 18.9343 16.1282 18.89 16.6281 18.7764C17.2415 18.633 17.8062 18.327 18.4153 18.1645C19.0588 17.9866 19.7132 17.851 20.3744 17.7584C20.4615 17.7557 20.5442 17.7199 20.6058 17.6584C20.6674 17.5968 20.7032 17.514 20.7059 17.427C20.7054 17.3392 20.6703 17.2552 20.6082 17.1932C20.5462 17.1311 20.4622 17.096 20.3744 17.0955C19.7748 17.1731 19.1855 17.3085 18.5961 17.4408C17.9695 17.5819 17.3936 17.8325 16.788 18.0378C15.8765 18.347 14.9028 18.2553 13.9683 18.125C13.4208 18.0485 12.8752 17.9604 12.3315 17.8605C12.2468 17.8395 12.1573 17.8518 12.0815 17.8949C12.0056 17.9379 11.9492 18.0084 11.9238 18.0918C11.9012 18.1766 11.9128 18.2668 11.9561 18.3431C11.9994 18.4194 12.0709 18.4756 12.1552 18.4996V18.5002Z" fill="black"/>
<path d="M37.8053 29.8791C38.3896 29.52 38.997 29.2012 39.5845 28.8478C40.1708 28.4794 40.7765 28.1428 41.3989 27.8396C41.4743 27.7947 41.529 27.722 41.5512 27.6372C41.5735 27.5523 41.5615 27.4621 41.5178 27.386C41.4721 27.3116 41.3994 27.2578 41.3149 27.2356C41.2304 27.2135 41.1407 27.2248 41.0643 27.2671C40.4419 27.5704 39.8362 27.907 39.25 28.2753C38.6625 28.6287 38.0551 28.9479 37.4706 29.3067C37.1077 29.5294 37.4403 30.1031 37.8053 29.8791Z" fill="black"/>
<path d="M28.4785 33.1729C29.6279 33.9414 30.7987 34.6801 31.9726 35.4115C32.2441 35.5958 32.5422 35.7378 32.8564 35.8324C33.2006 35.9236 33.5588 35.9498 33.9125 35.9095C34.6807 35.8199 35.5231 35.3964 35.8305 34.6451C36.1641 33.8303 35.808 32.8193 35.141 32.2835C35.0776 32.2238 34.9937 32.1905 34.9066 32.1905C34.8195 32.1905 34.7356 32.2238 34.6722 32.2835C34.6106 32.346 34.5761 32.4302 34.5761 32.5179C34.5761 32.6056 34.6106 32.6898 34.6722 32.7523C35.1501 33.1357 35.4201 33.7901 35.2321 34.3612C35.1493 34.6106 34.9032 34.8367 34.6395 34.9928C34.3777 35.1464 34.084 35.2374 33.7812 35.2587C33.4766 35.2836 33.1702 35.2456 32.881 35.147C32.6431 35.048 32.4166 34.9233 32.2057 34.7752C31.6115 34.4037 31.0198 34.0285 30.4303 33.6495C29.8892 33.3029 29.3473 32.9572 28.8131 32.5999C28.4575 32.3621 28.1252 32.9361 28.4785 33.1722V33.1729Z" fill="black"/>
<path d="M26.3303 35.567C27.2786 36.1923 28.2223 36.842 29.2062 37.4104C29.6088 37.6195 30.0548 37.7317 30.5085 37.738C31.1079 37.7784 31.7026 37.6082 32.1899 37.2567C32.7251 36.8488 33.03 36.0299 32.8114 35.3768C32.6769 34.9741 32.0364 35.1467 32.1721 35.5531C32.2288 35.7649 32.2233 35.9886 32.1563 36.1974C32.0892 36.4062 31.9633 36.5912 31.7938 36.7304C31.3927 37.0069 30.9046 37.1276 30.4208 37.07C30.2217 37.0541 30.0249 37.0164 29.834 36.9576C29.7974 36.9464 29.7609 36.9347 29.7249 36.9218C29.7083 36.916 29.6006 36.8725 29.6683 36.9019C29.61 36.876 29.5536 36.8461 29.4994 36.8126C29.0513 36.5393 28.607 36.2601 28.1662 35.9748C27.6635 35.6511 27.1628 35.3243 26.6642 34.9943C26.307 34.7588 25.9746 35.3326 26.3297 35.5667L26.3303 35.567Z" fill="black"/>
<path d="M9.58097 30.0899C10.4234 30.1567 11.2714 30.216 12.0684 30.5209C12.1532 30.5436 12.2434 30.532 12.3197 30.4886C12.396 30.4453 12.4522 30.3737 12.4762 30.2893C12.4976 30.2046 12.4854 30.1149 12.4423 30.0389C12.3991 29.963 12.3283 29.9066 12.2446 29.8816C11.3955 29.5568 10.4791 29.4981 9.58097 29.427C9.49328 29.4277 9.40939 29.4628 9.34739 29.5248C9.28539 29.5869 9.25023 29.6707 9.24951 29.7584C9.25121 29.8458 9.28668 29.9291 9.34847 29.9909C9.41027 30.0527 9.49359 30.0882 9.58097 30.0899Z" fill="black"/>
<path d="M5.46525 14.701C3.82469 14.2619 2.18345 13.8252 0.544688 13.3791C0.49552 13.3663 0.44408 13.3648 0.39426 13.3748C0.344439 13.3848 0.297543 13.406 0.257121 13.4368C0.216699 13.4676 0.18381 13.5071 0.160941 13.5525C0.138073 13.5979 0.125825 13.6479 0.125124 13.6987C0.127057 17.8721 0.073334 22.0455 0.0324548 26.2188C0.0208539 27.4056 0.0100357 28.5926 0 29.7795C0.000822378 29.8519 0.0249375 29.922 0.0687699 29.9796C0.112602 30.0372 0.173818 30.0791 0.243342 30.0991C2.04714 30.5496 3.84071 31.0393 5.64161 31.5009C5.97693 31.5869 6.31252 31.6728 6.64978 31.751C6.73444 31.7717 6.82381 31.7593 6.89961 31.7163C6.9754 31.6732 7.03188 31.6028 7.05747 31.5195C7.66223 29.9292 7.99078 28.2242 8.33936 26.5643C8.79801 24.3789 9.21163 22.1844 9.67429 19.9999C9.92799 18.8017 10.1948 17.6058 10.4992 16.4192C10.5208 16.3345 10.5088 16.2447 10.4656 16.1686C10.4224 16.0926 10.3514 16.0362 10.2676 16.0114C8.68048 15.5306 7.067 15.1297 5.46525 14.701C5.05273 14.5906 4.87678 15.2299 5.28903 15.3403C6.89105 15.7685 8.50426 16.1699 10.0914 16.6507L9.8599 16.243C9.30748 18.3974 8.87051 20.5813 8.4341 22.7616C8.02476 24.8084 7.63558 26.8615 7.14005 28.8894C6.95025 29.7214 6.7094 30.5409 6.41887 31.3433L6.82655 31.1117C5.17191 30.728 3.53481 30.2625 1.89094 29.8357C1.40122 29.7087 0.910944 29.5834 0.420117 29.4598L0.662906 29.7795C0.697709 25.5048 0.753227 21.2308 0.778086 16.9555C0.784439 15.87 0.787754 14.7844 0.78803 13.6987L0.368465 14.0177C2.00722 14.4645 3.64847 14.9016 5.28944 15.3403C5.70168 15.4507 5.87763 14.8114 5.46525 14.701Z" fill="black"/>
<path d="M9.98577 17.2542C10.3832 17.3691 10.7785 17.4912 11.1717 17.6203C11.3552 17.6804 11.5385 17.7416 11.7201 17.8071C11.7922 17.833 11.8636 17.8601 11.9349 17.8877C12.0194 17.9204 11.8771 17.8601 11.9476 17.8925C11.9695 17.9029 11.9913 17.9127 12.0127 17.924L11.8485 17.6379C11.8418 17.7366 11.831 17.835 11.8191 17.9333C11.8155 17.962 11.8118 17.9907 11.8082 18.0195C11.7967 18.1116 11.8187 17.9467 11.8052 18.0422C11.7945 18.1171 11.7839 18.1918 11.7727 18.2665C11.7202 18.6162 11.6607 18.9648 11.599 19.313C11.4299 20.2659 11.2425 21.2143 11.0482 22.1617C10.6251 24.2245 10.1766 26.2859 9.64189 28.3231C9.53444 28.7329 9.42285 29.1419 9.29869 29.5471C9.25174 29.7001 9.20313 29.8528 9.14995 30.0037C9.12758 30.0674 9.10452 30.1309 9.07994 30.1937C9.06916 30.2214 9.05742 30.2481 9.04693 30.2755C9.07455 30.2026 9.06626 30.2307 9.04375 30.2801L9.41802 30.1281C8.73481 29.9511 8.0302 29.8608 7.35307 29.6602C6.94317 29.5388 6.76805 30.1784 7.17684 30.2995C7.85356 30.5001 8.5579 30.5895 9.2418 30.7673C9.31221 30.786 9.38682 30.7813 9.45434 30.7539C9.52186 30.7265 9.57863 30.6779 9.61606 30.6154C9.8574 30.0357 10.0508 29.4372 10.1944 28.8259C10.451 27.8763 10.6797 26.9191 10.9006 25.9605C11.3743 23.9028 11.8128 21.8357 12.1899 19.7585C12.3359 19.0583 12.4432 18.3507 12.5114 17.6387C12.5122 17.5807 12.4973 17.5235 12.4685 17.4732C12.4396 17.4228 12.3978 17.3811 12.3474 17.3524C12.0394 17.2078 11.72 17.0889 11.3925 16.9967C10.9845 16.8625 10.5744 16.7356 10.162 16.6159C9.7514 16.4973 9.57601 17.1367 9.98577 17.255V17.2542Z" fill="black"/>
<path d="M45.711 13.7669C47.3515 13.3277 48.9928 12.8911 50.6315 12.4448L50.212 12.1257C50.21 16.2915 50.2636 20.4573 50.3045 24.6228C50.3161 25.8175 50.327 27.012 50.3371 28.2065L50.5804 27.887C48.7766 28.3375 46.9831 28.8272 45.1822 29.2887C44.8468 29.3746 44.5112 29.4605 44.174 29.5388L44.5818 29.7703C43.977 28.1802 43.6484 26.475 43.2999 24.8151C42.8411 22.6297 42.4275 20.4352 41.965 18.2508C41.7113 17.0524 41.4443 15.8566 41.1401 14.67L40.9086 15.0777C42.4957 14.5969 44.1092 14.196 45.711 13.7673C46.1227 13.6569 45.9479 13.0174 45.5347 13.128C43.9327 13.5569 42.3195 13.9576 40.7324 14.4385C40.6485 14.4633 40.5776 14.5196 40.5344 14.5957C40.4912 14.6717 40.4792 14.7615 40.5009 14.8462C41.0534 17.0007 41.4903 19.1845 41.9266 21.3648C42.3361 23.4111 42.7251 25.4646 43.2213 27.4921C43.4111 28.3241 43.6519 29.1436 43.9425 29.946C43.968 30.0294 44.0244 30.0999 44.1003 30.1429C44.1761 30.186 44.2655 30.1983 44.3502 30.1774C46.005 29.7938 47.642 29.3282 49.2858 28.9015C49.7757 28.7742 50.266 28.6489 50.7566 28.5256C50.8262 28.5056 50.8874 28.4637 50.9313 28.4061C50.9751 28.3485 50.9992 28.2783 51 28.206C50.9652 23.9215 50.9094 19.6371 50.8845 15.3525C50.8784 14.2769 50.8751 13.2011 50.8749 12.1251C50.8742 12.0743 50.8619 12.0243 50.8391 11.979C50.8162 11.9336 50.7833 11.894 50.7429 11.8632C50.7024 11.8325 50.6555 11.8113 50.6057 11.8013C50.5559 11.7913 50.5045 11.7928 50.4553 11.8057C48.8165 12.2519 47.1753 12.6885 45.5347 13.1276C45.123 13.2378 45.2977 13.8775 45.711 13.7669Z" fill="black"/>
<path d="M40.8377 15.0416C40.4198 15.1622 40.0036 15.2882 39.589 15.4196C39.258 15.5087 38.935 15.6251 38.6232 15.7675C38.5727 15.7961 38.5309 15.8378 38.502 15.8881C38.4731 15.9385 38.4582 15.9956 38.459 16.0537C38.5165 16.6638 38.6068 17.2704 38.7294 17.8709C38.9012 18.8307 39.0921 19.7872 39.2901 20.7419C39.722 22.8243 40.1795 24.9051 40.725 26.961C40.91 27.658 41.0832 28.3821 41.3839 29.0406C41.4212 29.1033 41.4779 29.1521 41.5455 29.1795C41.6131 29.207 41.6878 29.2115 41.7582 29.1925C42.4414 29.0154 43.1462 28.9252 43.8232 28.7247C44.2313 28.6037 44.0579 27.9637 43.6469 28.0854C42.9702 28.2861 42.2659 28.3763 41.582 28.5533L41.9563 28.7052C41.9498 28.6849 41.9411 28.6653 41.9304 28.6468C41.9898 28.7221 41.9481 28.6906 41.9314 28.6468C41.9097 28.5916 41.8884 28.5363 41.8681 28.4797C41.8206 28.3484 41.7771 28.2157 41.735 28.0825C41.6269 27.7406 41.5296 27.3952 41.4356 27.0492C41.1809 26.1111 40.9522 25.1659 40.7322 24.2193C40.2549 22.1682 39.8124 20.1069 39.4309 18.0358C39.3545 17.6214 39.2807 17.2053 39.2156 16.7885C39.2023 16.7035 39.1894 16.6183 39.177 16.533C39.1719 16.4975 39.1671 16.4619 39.162 16.4264C39.1529 16.3626 39.1707 16.4986 39.1582 16.3971C39.1444 16.2821 39.1306 16.1672 39.1222 16.0519L38.958 16.338C38.9771 16.3261 38.9976 16.3165 39.019 16.3094C38.9331 16.3277 39.0031 16.3163 39.027 16.3076C39.0961 16.2826 39.164 16.2568 39.233 16.2328C39.424 16.1662 39.6166 16.1042 39.8094 16.0432C40.2094 15.9165 40.611 15.7951 41.0142 15.6791C41.4233 15.561 41.249 14.9212 40.838 15.0398L40.8377 15.0416Z" fill="black"/>
<path d="M15.0997 32.9279C15.3328 32.3837 15.6389 31.8738 16.0096 31.4122C16.3439 31.0001 16.7426 30.4987 17.2654 30.3267C17.4992 30.2486 17.7486 30.2283 17.992 30.2675C18.2355 30.3068 18.4658 30.4044 18.6633 30.5521C18.8288 30.6958 18.9608 30.8741 19.0499 31.0744C19.1391 31.2747 19.1832 31.4921 19.1792 31.7112C19.1829 31.8893 19.1544 32.0666 19.095 32.2345C19.0901 32.2483 19.0585 32.3283 19.0714 32.2972C19.0819 32.2715 19.0477 32.3501 19.0392 32.3686C19.0007 32.4515 18.9591 32.5343 18.916 32.615C18.7177 32.9823 18.4954 33.3362 18.2506 33.6743C18.0133 34.0142 17.7472 34.333 17.4551 34.6272C17.3919 34.6893 17.3264 34.7487 17.2594 34.8067C17.2471 34.8175 17.2343 34.8277 17.2216 34.8379C17.1792 34.8722 17.2567 34.8127 17.2147 34.8436C17.1837 34.8664 17.1522 34.8886 17.1197 34.9091C16.9184 35.0311 16.6879 35.0965 16.4526 35.0983C16.2119 35.1018 15.9742 35.0438 15.7622 34.9296C15.5503 34.8154 15.371 34.6489 15.2416 34.4459C15.0923 34.2095 15.0043 33.9398 14.9854 33.6609C14.9664 33.382 15.0172 33.1029 15.1331 32.8485C15.1559 32.7638 15.1444 32.6735 15.101 32.5972C15.0577 32.5209 14.986 32.4648 14.9015 32.441C14.8169 32.4198 14.7273 32.432 14.6514 32.4751C14.5754 32.5182 14.519 32.5889 14.4939 32.6724C14.3686 32.9711 14.3079 33.2928 14.316 33.6166C14.3241 33.9403 14.4007 34.2587 14.5407 34.5507C14.7928 35.0666 15.2362 35.4638 15.7766 35.658C16.0656 35.7579 16.3738 35.7896 16.6771 35.7507C16.9804 35.7118 17.2707 35.6033 17.5251 35.4337C17.8905 35.1549 18.2144 34.8254 18.487 34.4554C18.8064 34.053 19.0971 33.6288 19.3571 33.1858C19.5836 32.8393 19.7402 32.452 19.8182 32.0454C19.8614 31.7453 19.8443 31.4396 19.7679 31.1462C19.6914 30.8528 19.5572 30.5776 19.3731 30.3367C19.1723 30.0948 18.9192 29.9016 18.633 29.7717C18.3468 29.6417 18.0348 29.5783 17.7206 29.5862C16.9246 29.5971 16.3269 30.0566 15.8147 30.6239C15.2815 31.206 14.8467 31.871 14.5273 32.5929C14.4857 32.6694 14.4749 32.7589 14.497 32.8432C14.5191 32.9275 14.5724 33.0001 14.6462 33.0464C14.7222 33.0902 14.8124 33.1024 14.8973 33.0802C14.9821 33.058 15.0549 33.0033 15.0997 32.9279Z" fill="black"/>
<path d="M18.6777 34.6986C18.8622 34.1606 19.119 33.6501 19.4409 33.1812C19.7255 32.7629 20.0675 32.2678 20.5511 32.066C20.7583 31.9707 20.9861 31.929 21.2136 31.9446C21.4411 31.9602 21.661 32.0326 21.8533 32.1553C22.0455 32.2779 22.2039 32.4469 22.3139 32.6466C22.4239 32.8464 22.482 33.0706 22.4829 33.2986C22.494 33.4592 22.4771 33.6205 22.4329 33.7753C22.3919 33.9101 22.3426 34.0423 22.2854 34.171C22.1158 34.5495 21.9216 34.9166 21.7041 35.2698C21.5055 35.6103 21.2762 35.932 21.019 36.2307C20.9693 36.286 20.918 36.3405 20.8643 36.3922C20.8381 36.4174 20.8111 36.4417 20.7839 36.4659C20.7701 36.4788 20.7543 36.4913 20.7391 36.5035C20.7794 36.4712 20.7453 36.4993 20.7232 36.5133C20.4371 36.7022 20.0894 36.7743 19.7517 36.7146C19.4141 36.6549 19.1122 36.4681 18.9082 36.1925C18.7498 35.9817 18.6459 35.735 18.6057 35.4744C18.5655 35.2138 18.5902 34.9473 18.6777 34.6986C18.8068 34.291 18.1667 34.1166 18.0384 34.5224C17.9393 34.8179 17.9027 35.1308 17.9311 35.4412C17.9594 35.7516 18.0521 36.0527 18.2032 36.3253C18.4803 36.8094 18.933 37.1684 19.4675 37.328C19.7605 37.4092 20.0684 37.421 20.3667 37.3622C20.665 37.3035 20.9454 37.1759 21.1857 36.9896C21.5177 36.6986 21.804 36.3591 22.0346 35.9827C22.3065 35.5797 22.5489 35.1576 22.7598 34.7197C22.9594 34.3551 23.0896 33.9567 23.1438 33.5446C23.1644 33.2495 23.1261 32.9532 23.0308 32.6731C22.9356 32.393 22.7855 32.1348 22.5893 31.9134C22.3738 31.6886 22.1091 31.5169 21.816 31.4117C21.5229 31.3065 21.2095 31.2706 20.9002 31.307C20.5344 31.342 20.1846 31.4743 19.8872 31.6902C19.5918 31.9251 19.3311 32.2005 19.1129 32.5084C18.6476 33.1169 18.2845 33.7971 18.038 34.5224C17.9011 34.9269 18.5412 35.1012 18.6777 34.6986Z" fill="black"/>
<path d="M21.733 37.1288C21.7972 36.8049 21.9003 36.4899 22.0402 36.1907C22.1694 35.877 22.3482 35.586 22.5698 35.329C22.9979 34.8747 23.8357 34.8534 24.1718 35.4224C24.508 35.9914 24.3943 36.5641 24.1889 37.1395C23.9818 37.7185 23.6571 38.4515 22.9703 38.5419C22.7997 38.5593 22.6274 38.5363 22.4674 38.4748C22.3073 38.4133 22.164 38.315 22.0489 38.188C21.918 38.0478 21.8214 37.8792 21.7664 37.6955C21.7115 37.5118 21.6999 37.3178 21.7323 37.1288C21.753 37.0442 21.7406 36.9548 21.6976 36.879C21.6545 36.8032 21.5842 36.7467 21.5009 36.721C21.4161 36.6983 21.3258 36.7099 21.2495 36.7533C21.1732 36.7966 21.117 36.8682 21.093 36.9526C21.0151 37.435 21.0682 37.9901 21.365 38.396C21.6211 38.7726 22.0052 39.0434 22.4459 39.1582C22.6904 39.2174 22.9449 39.222 23.1913 39.1714C23.4377 39.1209 23.6699 39.0165 23.8713 38.8658C24.1939 38.59 24.4464 38.2415 24.608 37.8491C24.9628 37.0926 25.218 36.2346 24.9006 35.4202C24.8286 35.204 24.7115 35.0055 24.5571 34.8379C24.4026 34.6703 24.2144 34.5374 24.0048 34.4479C23.7754 34.3614 23.5307 34.3221 23.2857 34.3326C23.0407 34.3431 22.8003 34.4031 22.579 34.509C22.1287 34.7199 21.829 35.1559 21.6022 35.5822C21.3652 36.0111 21.1936 36.473 21.093 36.9526C21.072 37.0373 21.0844 37.1268 21.1275 37.2027C21.1706 37.2785 21.2411 37.335 21.3246 37.3603C21.4095 37.3831 21.4999 37.3716 21.5763 37.3283C21.6527 37.285 21.709 37.2133 21.733 37.1288Z" fill="black"/>
<path d="M11.7456 31.992C11.6595 31.7104 11.6616 31.4093 11.7518 31.129C11.8258 30.8624 11.9262 30.6644 12.1703 30.5539C12.6173 30.3516 13.2494 30.5183 13.6432 30.8193C14.1104 31.1765 14.6353 31.7057 14.5179 32.3496C14.4951 32.4784 14.4482 32.6019 14.3798 32.7135C14.335 32.7949 14.2679 32.862 14.1865 32.9068C13.9312 33.0195 13.6548 33.0765 13.3758 33.0742C13.0539 33.0935 12.7344 33.0089 12.4643 32.8328C12.1433 32.6343 11.8922 32.3405 11.7461 31.9924C11.7206 31.9091 11.6641 31.8387 11.5883 31.7956C11.5125 31.7526 11.4231 31.7401 11.3385 31.7608C11.254 31.7847 11.1824 31.8409 11.1391 31.9172C11.0957 31.9936 11.0842 32.0839 11.107 32.1686C11.4411 33.0018 12.2009 33.6595 13.1159 33.732C13.512 33.7645 13.9105 33.7134 14.2856 33.5821C14.462 33.5197 14.6226 33.4198 14.7566 33.2892C14.8906 33.1587 14.9947 33.0007 15.0616 32.826C15.1543 32.5956 15.198 32.3483 15.1897 32.1C15.1814 31.8518 15.1214 31.608 15.0136 31.3842C14.8344 31.0444 14.5887 30.7442 14.291 30.5014C13.7068 29.9766 12.8898 29.6528 12.1022 29.8776C11.8846 29.941 11.6859 30.0567 11.5231 30.2144C11.3604 30.3721 11.2387 30.5671 11.1685 30.7826C10.9918 31.2244 10.9701 31.713 11.107 32.1686C11.1323 32.2521 11.1887 32.3227 11.2646 32.3658C11.3405 32.4089 11.43 32.4212 11.5147 32.4001C11.599 32.376 11.6705 32.3196 11.7137 32.2433C11.7569 32.167 11.7683 32.0767 11.7456 31.992Z" fill="black"/>
<path d="M31.2375 29.5829L31.2274 29.5753L31.2946 29.6271C31.217 29.5659 31.1474 29.4952 31.0874 29.4167L31.1392 29.4839C31.0324 29.3416 30.9443 29.1862 30.8768 29.0216L30.9102 29.1008C30.8787 29.0255 30.851 28.9486 30.8274 28.8705C30.8031 28.7879 30.749 28.7172 30.6754 28.6724C30.6185 28.6391 30.553 28.6235 30.4872 28.6277C30.4214 28.6318 30.3583 28.6555 30.306 28.6957C30.2538 28.7359 30.2147 28.7908 30.1938 28.8533C30.1728 28.9159 30.171 28.9832 30.1886 29.0468C30.2443 29.23 30.3187 29.407 30.4104 29.5752C30.4723 29.6862 30.5436 29.7917 30.6234 29.8907C30.7047 29.9909 30.799 30.0798 30.9036 30.1553C30.9418 30.1776 30.9841 30.192 31.0279 30.1977C31.0718 30.2034 31.1163 30.2003 31.1589 30.1886C31.2009 30.1771 31.2402 30.1573 31.2745 30.1306C31.3089 30.1038 31.3376 30.0706 31.3591 30.0327C31.3806 29.9949 31.3944 29.9531 31.3998 29.9099C31.4052 29.8667 31.402 29.8229 31.3904 29.7809L31.357 29.7018C31.3282 29.6526 31.2873 29.6116 31.2381 29.5829H31.2375Z" fill="black"/>
</svg>
