<svg width="53" height="53" viewBox="0 0 53 53" fill="none" xmlns="http://www.w3.org/2000/svg">
<path d="M4.60896 39.255C3.93718 39.255 3.28293 38.887 2.94997 38.2503C1.02227 34.5467 0 30.3701 0 26.17C0 22.6359 0.689299 19.2128 2.05621 15.9824C3.3764 12.863 5.26321 10.0649 7.66407 7.66407C10.0649 5.26321 12.863 3.3764 15.9824 2.05621C19.2128 0.689299 22.6359 0 26.17 0C28.933 0 31.6552 0.426431 34.2547 1.27345C35.236 1.59473 35.7735 2.64621 35.458 3.62758C35.1367 4.60896 34.0853 5.14638 33.1039 4.83094C30.8724 4.10659 28.5417 3.73857 26.17 3.73857C13.8035 3.73857 3.73857 13.8035 3.73857 26.17C3.73857 29.8209 4.58559 33.3083 6.26211 36.5212C6.74111 37.4383 6.38478 38.5657 5.46766 39.0447C5.19311 39.1849 4.90103 39.255 4.60896 39.255ZM37.3974 49.6003C36.7256 49.6003 36.0714 49.2323 35.7384 48.5956C35.2594 47.6785 35.6157 46.5511 36.5329 46.0721C43.9749 42.1874 48.6014 34.5643 48.6014 26.17C48.6014 25.0134 48.5138 23.8509 48.3386 22.7177C48.1808 21.6954 48.8818 20.7432 49.8982 20.5855C50.9205 20.4278 51.8727 21.1288 52.0304 22.1452C52.2349 23.4654 52.34 24.8206 52.34 26.17C52.34 31.0477 50.9906 35.8027 48.4379 39.9268C45.9552 43.9341 42.4386 47.2053 38.2619 49.3842C37.9815 49.5302 37.6836 49.6003 37.3974 49.6003Z" fill="black"/>
<path d="M11.4436 27.2507C11.4436 29.5204 12.1649 31.6971 13.4488 33.302C14.7327 34.9069 16.4741 35.8085 18.2899 35.8085C20.1056 35.8085 21.847 34.9069 23.1309 33.302C24.4148 31.6971 25.1361 29.5204 25.1361 27.2507C25.1361 24.981 24.4148 22.8043 23.1309 21.1994C21.847 19.5945 20.1056 18.6929 18.2899 18.6929C16.4741 18.6929 14.7327 19.5945 13.4488 21.1994C12.1649 22.8043 11.4436 24.981 11.4436 27.2507Z" fill="black"/>
<path d="M25.8254 52.3397C34.0444 52.3397 35.2244 48.5369 28.3781 43.9863C25.4866 42.0645 22.0167 40.9487 18.2898 40.9487C14.5629 40.9487 11.0872 42.0703 8.20152 43.9863C1.35526 48.5369 2.53525 52.3397 10.7543 52.3397H25.8254Z" fill="black"/>
<path d="M39.0913 7.54111C39.0913 8.54968 39.412 9.51695 39.9827 10.2301C40.5535 10.9433 41.3276 11.3439 42.1347 11.3439C42.9419 11.3439 43.716 10.9433 44.2868 10.2301C44.8575 9.51695 45.1782 8.54968 45.1782 7.54111C45.1782 6.53254 44.8575 5.56527 44.2868 4.8521C43.716 4.13894 42.9419 3.73828 42.1347 3.73828C41.3276 3.73828 40.5535 4.13894 39.9827 4.8521C39.412 5.56527 39.0913 6.53254 39.0913 7.54111Z" fill="black"/>
<path d="M45.488 18.6928C49.139 18.6928 49.6647 17.0046 46.6213 14.9834C45.3361 14.1306 43.794 13.634 42.135 13.634C40.476 13.634 38.9338 14.1306 37.6487 14.9834C34.6053 17.0046 35.131 18.6928 38.782 18.6928H45.488Z" fill="black"/>
</svg>
