<svg width="18" height="13" viewBox="0 0 18 13" fill="none" xmlns="http://www.w3.org/2000/svg">
<path fill-rule="evenodd" clip-rule="evenodd" d="M4.27058 9.40639C3.00647 8.34307 2.10358 7.12774 1.68 6.5C2.10358 5.87226 3.00647 4.65691 4.27058 3.59364C5.57569 2.49588 7.18719 1.625 8.99997 1.625C10.8128 1.625 12.4244 2.49588 13.7294 3.59364C14.9936 4.65691 15.8965 5.87226 16.3201 6.5C15.8965 7.12774 14.9936 8.34307 13.7294 9.40639C12.4244 10.5042 10.8128 11.375 8.99997 11.375C7.18719 11.375 5.57569 10.5042 4.27058 9.40639ZM8.99997 0C6.63263 0 4.64878 1.13313 3.18889 2.36108C1.7237 3.59349 0.706942 4.9868 0.255708 5.66296C-0.085236 6.17378 -0.085236 6.82622 0.255708 7.33704C0.706942 8.0132 1.7237 9.40648 3.18889 10.639C4.64878 11.8669 6.63263 13 8.99997 13C11.3674 13 13.3512 11.8669 14.8112 10.639C16.2763 9.40648 17.2931 8.0132 17.7443 7.33704C18.0852 6.82622 18.0852 6.17378 17.7443 5.66296C17.2931 4.9868 16.2763 3.59349 14.8112 2.36108C13.3512 1.13313 11.3674 0 8.99997 0ZM7.34011 6.5C7.34011 5.60251 8.08331 4.875 8.99997 4.875C9.91672 4.875 10.6598 5.60251 10.6598 6.5C10.6598 7.39749 9.91672 8.125 8.99997 8.125C8.08331 8.125 7.34011 7.39749 7.34011 6.5ZM8.99997 3.25C7.16657 3.25 5.68028 4.70507 5.68028 6.5C5.68028 8.29489 7.16657 9.75 8.99997 9.75C10.8335 9.75 12.3197 8.29489 12.3197 6.5C12.3197 4.70507 10.8335 3.25 8.99997 3.25Z" fill="black"/>
</svg>
