<svg width="43" height="34" viewBox="0 0 43 34" fill="none" xmlns="http://www.w3.org/2000/svg">
<path d="M9.20599 14.6798L15.1954 10.8854C13.6137 9.04619 12.068 7.24884 10.5221 5.45164C10.2162 5.09707 9.91316 4.73804 9.60044 4.38796C8.88643 3.58893 8.88588 2.76897 9.60783 1.99493C9.67171 1.92644 9.74411 1.86581 9.81327 1.80217C12.3586 -0.541041 11.786 -0.26001 14.6399 0.740758C17.2481 1.65513 19.8175 2.70702 22.3218 3.86977C23.9663 4.63315 25.2787 4.81324 26.8708 3.60945C29.0041 1.98346 31.5171 0.909564 34.1803 0.485839C36.3545 0.14099 38.497 0.159658 40.6435 0.759596C43.566 1.576 43.4403 4.51485 42.0475 5.90788C41.2849 6.64866 40.4491 7.31287 39.5528 7.89074C37.3043 9.38248 35.0336 10.8444 32.7294 12.2521C32.3944 12.438 32.1048 12.6943 31.8816 13.0027C31.6583 13.3111 31.5067 13.6641 31.4377 14.0366C30.3268 18.9071 29.1653 23.7672 28.0097 28.6279C27.8752 29.1379 27.7147 29.6406 27.5289 30.1347C27.3983 30.5197 27.1889 30.8742 26.9136 31.1765C26.6384 31.4787 26.3031 31.7221 25.9286 31.8918C24.5639 32.536 23.1945 33.1718 21.8039 33.7577C20.3651 34.3645 19.6153 33.8172 19.7062 32.2773C19.935 28.4034 20.1652 24.5297 20.3969 20.6561C20.4096 20.4419 20.3986 20.2269 20.3986 19.8641C19.979 20.1004 19.6374 20.2915 19.2972 20.4848C16.0212 22.3471 12.8232 24.3696 9.26115 25.6767C7.84967 26.1992 6.3798 26.5535 4.88281 26.7322C3.4266 26.8988 2.29809 26.191 1.66351 24.7915C1.00762 23.4117 0.600486 21.9301 0.46032 20.4129C0.295801 18.2787 0.134505 16.1441 0.00637722 14.0077C-0.0662161 12.7998 0.481361 11.9998 1.62807 11.4465C4.25734 10.1776 3.96374 10.3612 5.73195 11.8791C6.75412 12.7561 7.80456 13.6028 8.84513 14.4595C8.96038 14.5406 9.08095 14.6143 9.20599 14.6798ZM21.7866 31.4636L22.0357 31.5756C22.6621 31.2927 23.2677 30.9433 23.9197 30.742C25.0249 30.4014 25.3187 29.5667 25.5709 28.5892C26.942 23.2754 28.3403 17.9682 29.7657 12.6677C29.9193 12.0808 30.1916 11.5306 30.5664 11.0499C30.9413 10.5693 31.4108 10.1681 31.9471 9.87062C33.9198 8.70789 35.8153 7.41676 37.7222 6.14804C38.6356 5.54043 39.5273 4.89367 40.3781 4.20398C41.0963 3.62196 40.9866 3.17764 40.1165 2.88653C38.2275 2.25579 36.2878 2.15764 34.3249 2.40545C31.7877 2.72548 29.5924 3.8847 27.4784 5.20138C21.6172 8.85277 15.7644 12.5175 9.92018 16.1955C8.8777 16.8497 8.71737 16.8618 7.79111 16.0275C6.62752 14.9793 5.49105 13.9021 4.33165 12.8494C4.02496 12.5708 3.7365 12.0998 3.21906 12.4557C2.68835 12.8209 1.82235 12.9078 1.91598 13.8433C2.21545 16.8342 2.39418 19.8434 2.85932 22.8094C3.22359 25.1318 3.99654 25.4472 6.30018 24.7713C8.79829 24.0383 11.0898 22.8679 13.3131 21.5604C15.6679 20.1758 17.9958 18.7469 20.3401 17.3446C21.3666 16.7305 22.1228 17.0733 22.29 18.2261C22.3711 18.685 22.4132 19.1498 22.4161 19.6156C22.3414 22.5027 22.2474 25.3892 22.1492 28.2756C22.1388 28.5821 22.0489 28.8857 22.0165 29.1925C21.9327 29.9491 21.862 30.7068 21.7874 31.4639L21.7866 31.4636ZM17.0836 9.71296L22.6958 6.18778C19.6055 4.49057 16.3848 3.03443 13.0633 1.83276C12.8203 1.74655 12.4613 1.693 12.2672 1.80739C11.6647 2.16381 11.116 2.60813 10.7468 2.87405L13.8652 6.24058C14.898 7.35481 15.9306 8.46849 17.0836 9.71296Z" fill="black"/>
</svg>
