<svg width="19" height="21" viewBox="0 0 19 21" fill="none" xmlns="http://www.w3.org/2000/svg">
<path d="M1 3.08333H7.5H1ZM7.5 3.08333C7.5 4.23393 8.47002 5.16667 9.66667 5.16667C10.8633 5.16667 11.8333 4.23393 11.8333 3.08333M7.5 3.08333C7.5 1.93274 8.47002 1 9.66667 1C10.8633 1 11.8333 1.93274 11.8333 3.08333M11.8333 3.08333H18.3333H11.8333ZM1 10.375H14H1ZM14 10.375C14 11.5256 14.97 12.4583 16.1667 12.4583C17.3633 12.4583 18.3333 11.5256 18.3333 10.375C18.3333 9.22437 17.3633 8.29167 16.1667 8.29167C14.97 8.29167 14 9.22437 14 10.375ZM5.33333 17.6667H18.3333H5.33333ZM5.33333 17.6667C5.33333 16.516 4.36328 15.5833 3.16667 15.5833C1.97005 15.5833 1 16.516 1 17.6667C1 18.8173 1.97005 19.75 3.16667 19.75C4.36328 19.75 5.33333 18.8173 5.33333 17.6667Z" fill="black"/>
<path d="M1 3.08333H7.5M7.5 3.08333C7.5 4.23393 8.47002 5.16667 9.66667 5.16667C10.8633 5.16667 11.8333 4.23393 11.8333 3.08333M7.5 3.08333C7.5 1.93274 8.47002 1 9.66667 1C10.8633 1 11.8333 1.93274 11.8333 3.08333M11.8333 3.08333H18.3333M1 10.375H14M14 10.375C14 11.5256 14.97 12.4583 16.1667 12.4583C17.3633 12.4583 18.3333 11.5256 18.3333 10.375C18.3333 9.22437 17.3633 8.29167 16.1667 8.29167C14.97 8.29167 14 9.22437 14 10.375ZM5.33333 17.6667H18.3333M5.33333 17.6667C5.33333 16.516 4.36328 15.5833 3.16667 15.5833C1.97005 15.5833 1 16.516 1 17.6667C1 18.8173 1.97005 19.75 3.16667 19.75C4.36328 19.75 5.33333 18.8173 5.33333 17.6667Z" stroke="black" stroke-linecap="round"/>
</svg>
