<svg width="56" height="50" viewBox="0 0 56 50" fill="none" xmlns="http://www.w3.org/2000/svg">
<path d="M14.0101 25.5239C14.5482 26.7094 15.9455 27.2343 17.131 26.6959C18.3165 26.1578 18.8412 24.7607 18.303 23.5751L14.0101 25.5239ZM9.91751 20.5578L9.88636 22.9151C9.9017 22.9151 9.91703 22.9151 9.93234 22.9151L9.91751 20.5578ZM3.12213 27.174L0.764809 27.1422V27.174H3.12213ZM3.12213 40.4127H0.764526L0.765091 40.4501L3.12213 40.4127ZM9.91751 47.0132L9.93608 44.6559C9.91949 44.6559 9.90289 44.6559 9.88626 44.6562L9.91751 47.0132ZM18.6155 43.1994C19.0384 41.9682 18.383 40.6271 17.1517 40.2043C15.9203 39.7813 14.5793 40.4369 14.1565 41.6681L18.6155 43.1994ZM18.3102 23.5912C17.7809 22.4018 16.3876 21.8665 15.1981 22.3958C14.0087 22.9251 13.4735 24.3185 14.0029 25.5078L18.3102 23.5912ZM16.7129 40.4127H14.3555L14.3556 40.429L16.7129 40.4127ZM14.1563 41.719C13.7546 42.9574 14.4329 44.2869 15.6713 44.6886C16.9097 45.0903 18.2392 44.412 18.6409 43.1736L14.1563 41.719ZM14.0462 23.4991C13.4661 24.6649 13.9407 26.0799 15.1062 26.6601C16.2718 27.24 17.6869 26.7654 18.267 25.5999L14.0462 23.4991ZM18.3819 21.8182L16.9901 19.9156C16.9687 19.9312 16.9476 19.9472 16.9267 19.9636L18.3819 21.8182ZM19.57 20.1335L21.8294 20.8058C21.8377 20.7777 21.8456 20.7495 21.8529 20.7211L19.57 20.1335ZM22.9676 6.9325L20.7042 6.2738C20.6974 6.29741 20.6908 6.32111 20.6847 6.3449L22.9676 6.9325ZM29.6279 3.19222L29.0121 5.46773C29.0304 5.4726 29.0483 5.47725 29.0665 5.48168L29.6279 3.19222ZM33.4719 9.67014L35.7446 10.2963L35.7503 10.2743L33.4719 9.67014ZM31.5294 16.7201L29.2567 16.0938L29.2472 16.1297L31.5294 16.7201ZM34.1539 20.0486V17.6909L34.1121 17.6917L34.1539 20.0486ZM45.2553 20.0486V22.4062L45.2877 22.4056L45.2553 20.0486ZM53.4117 27.988H55.7693L55.7687 27.9569L53.4117 27.988ZM53.4117 38.5709L55.769 38.6029V38.5709H53.4117ZM45.2553 46.5072L45.2877 44.1498H45.2553V46.5072ZM23.5083 46.5072V44.1498H23.4963L23.5083 46.5072ZM18.4239 41.2488C17.7694 40.1232 16.3265 39.7413 15.201 40.396C14.0756 41.0504 13.6937 42.4931 14.3481 43.6187L18.4239 41.2488ZM18.303 23.5751C16.8086 20.2831 13.5179 18.1778 9.90267 18.2005L9.93234 22.9151C11.6873 22.9041 13.2846 23.9259 14.0101 25.5239L18.303 23.5751ZM9.94865 18.2007C4.94384 18.1346 0.832385 22.1375 0.764809 27.1422L5.47923 27.2057C5.51167 24.8041 7.48459 22.8833 9.88636 22.9151L9.94865 18.2007ZM0.764809 27.174L0.764526 40.4127H5.47945V27.174H0.764809ZM0.765091 40.4501C0.844297 45.4467 4.95207 49.4365 9.94875 49.3705L9.88626 44.6562C7.48843 44.6879 5.51714 42.7732 5.47917 40.3753L0.765091 40.4501ZM9.89893 49.3705C13.829 49.4013 17.339 46.9167 18.6155 43.1994L14.1565 41.6681C13.5384 43.4678 11.839 44.671 9.93608 44.6559L9.89893 49.3705ZM14.0029 25.5078C14.2359 26.0318 14.3561 26.5985 14.3556 27.1718L19.0702 27.1762C19.0714 25.9409 18.8124 24.7195 18.3102 23.5912L14.0029 25.5078ZM14.3556 27.1718L14.3555 40.4127H19.0702V27.1762L14.3556 27.1718ZM14.3556 40.429C14.3586 40.8669 14.2913 41.3025 14.1563 41.719L18.6409 43.1736C18.9317 42.2769 19.0767 41.3393 19.0701 40.3964L14.3556 40.429ZM18.267 25.5999C18.6407 24.849 19.177 24.1906 19.837 23.6729L16.9267 19.9636C15.7159 20.9136 14.7319 22.1215 14.0462 23.4991L18.267 25.5999ZM19.7737 23.7207C20.7591 23 21.4811 21.9759 21.8294 20.8058L17.3105 19.4612C17.2563 19.6436 17.1437 19.8032 16.9901 19.9156L19.7737 23.7207ZM21.8529 20.7211L25.2505 7.52007L20.6847 6.3449L17.287 19.5459L21.8529 20.7211ZM25.231 7.59117C25.7024 5.97141 27.3837 5.02716 29.0121 5.46773L30.2436 0.91668C26.1353 -0.194782 21.8934 2.1874 20.7042 6.2738L25.231 7.59117ZM29.0665 5.48168C29.8278 5.66838 30.4818 6.15336 30.882 6.82749L34.9366 4.42151C33.8905 2.65893 32.1801 1.39091 30.1892 0.902725L29.0665 5.48168ZM30.882 6.82749C31.2821 7.50162 31.3943 8.30827 31.1934 9.06594L35.7503 10.2743C36.2758 8.29321 35.9826 6.1841 34.9366 4.42151L30.882 6.82749ZM31.1991 9.04397L29.2567 16.0938L33.8022 17.3463L35.7446 10.2963L31.1991 9.04397ZM29.2472 16.1297C28.8543 17.6482 29.1941 19.2631 30.165 20.4947L33.8673 17.5756C33.8085 17.5008 33.7878 17.4027 33.8116 17.3105L29.2472 16.1297ZM30.165 20.4947C31.1362 21.7264 32.6273 22.4333 34.1957 22.4056L34.1121 17.6917C34.0169 17.6934 33.9264 17.6504 33.8673 17.5756L30.165 20.4947ZM34.1539 22.4059L45.2553 22.4062V17.6913L34.1539 17.6909V22.4059ZM45.2877 22.4056C46.797 22.3848 48.2526 22.9647 49.3341 24.0177L52.6228 20.6393C50.6448 18.714 47.9829 17.6535 45.223 17.6915L45.2877 22.4056ZM49.3341 24.0177C50.4157 25.0703 51.0345 26.5098 51.0547 28.0192L55.7687 27.9569C55.7325 25.197 54.6007 22.5646 52.6228 20.6393L49.3341 24.0177ZM51.0544 27.988V38.5709H55.769L55.7693 27.988H51.0544ZM51.0547 38.5388C51.0342 40.0478 50.415 41.4867 49.3335 42.539L52.6212 45.9182C54.5991 43.9936 55.7316 41.3622 55.769 38.6029L51.0547 38.5388ZM49.3335 42.539C48.252 43.5913 46.7967 44.1706 45.2877 44.1498L45.223 48.8642C47.9823 48.9022 50.6436 47.8424 52.6212 45.9182L49.3335 42.539ZM45.2553 44.1498H23.5083V48.8645H45.2553V44.1498ZM23.4963 44.1498C21.4081 44.1605 19.4736 43.0542 18.4239 41.2488L14.3481 43.6187C16.2462 46.8831 19.7443 48.8837 23.5202 48.8645L23.4963 44.1498Z" fill="black"/>
</svg>
