<svg width="56" height="56" viewBox="0 0 56 56" fill="none" xmlns="http://www.w3.org/2000/svg">
<path fill-rule="evenodd" clip-rule="evenodd" d="M28.2803 45.3352C26.2726 45.3352 24.3337 45.1014 22.4705 44.7043L14.378 49.5688L14.4863 41.5949C8.28283 37.8649 4.21596 31.6976 4.21596 24.7086C4.21596 13.3176 14.9899 4.08205 28.2803 4.08205C41.5707 4.08205 52.3446 13.3176 52.3446 24.7086C52.3446 36.1014 41.5707 45.3352 28.2803 45.3352ZM28.2803 0.644287C13.0923 0.644287 0.778198 11.42 0.778198 24.7086C0.778198 32.3044 4.80897 39.0682 11.0915 43.4771V55.6485L23.1391 48.3381C24.8064 48.6131 26.5219 48.7729 28.2803 48.7729C43.4683 48.7729 55.7824 37.999 55.7824 24.7086C55.7824 11.42 43.4683 0.644287 28.2803 0.644287Z" fill="black"/>
</svg>
