<svg width="41" height="36" viewBox="0 0 41 36" fill="none" xmlns="http://www.w3.org/2000/svg">
<path d="M1 7.8C1 5.41977 1 4.22966 1.47231 3.32054C1.88775 2.52084 2.55066 1.87068 3.36604 1.46323C4.29299 1 5.50645 1 7.93333 1H33.0667C35.4935 1 36.7071 1 37.634 1.46323C38.4493 1.87068 39.1123 2.52084 39.5277 3.32054C40 4.22966 40 5.41979 40 7.8V35L32.7973 31.4678C32.2513 31.2001 31.9784 31.0662 31.6921 30.9719C31.4382 30.8881 31.1767 30.8276 30.9113 30.791C30.6123 30.75 30.307 30.75 29.6966 30.75H7.93333C5.50643 30.75 4.29299 30.75 3.36604 30.2867C2.55066 29.8794 1.88775 29.2291 1.47231 28.4295C1 27.5204 1 26.3302 1 23.95V7.8Z" stroke="black" stroke-width="2" stroke-linecap="round" stroke-linejoin="round"/>
</svg>
