<svg width="61" height="43" viewBox="0 0 61 43" fill="none" xmlns="http://www.w3.org/2000/svg">
<path d="M59.7584 21.4537H24.6988M1.59839 8.35754H9.78353M4.87245 21.4537H9.78353M6.50948 34.5499H9.78353M24.3908 23.0567L21.472 32.7446C20.367 36.4122 19.8145 38.246 20.2846 39.3408C20.6927 40.2916 21.5261 40.9936 22.5324 41.2339C23.6915 41.5109 25.4044 40.6544 28.8304 38.9414L54.4345 26.1392C57.4506 24.6311 58.9589 23.8771 59.4428 22.8566C59.8639 21.9687 59.8639 20.9387 59.4428 20.0507C58.9589 19.0302 57.4506 18.2762 54.4345 16.7682L28.7953 3.94866C25.3789 2.24045 23.6706 1.38635 22.5127 1.66206C21.5073 1.90149 20.6739 2.60158 20.2647 3.5506C19.7933 4.64364 20.34 6.47358 21.4333 10.1335L24.3944 20.0462C24.5617 20.606 24.6451 20.886 24.6782 21.1711C24.7077 21.4242 24.7073 21.6796 24.6772 21.9327C24.6435 22.2178 24.5594 22.4974 24.3908 23.0567Z" stroke="black" stroke-width="2" stroke-linecap="round" stroke-linejoin="round"/>
</svg>
