<svg width="45" height="45" viewBox="0 0 45 45" fill="none" xmlns="http://www.w3.org/2000/svg">
<path d="M22.332 4.02387C28.2949 4.02387 29.0012 4.04656 31.356 4.15401C33.5334 4.25338 34.7158 4.61719 35.5028 4.92293C36.5451 5.32805 37.2892 5.81206 38.0706 6.59349C38.852 7.37491 39.336 8.11893 39.741 9.16124C40.0469 9.94825 40.4107 11.1307 40.5101 13.308C40.6175 15.6629 40.6402 16.3691 40.6402 22.3321C40.6402 28.295 40.6175 29.0013 40.5101 31.3561C40.4107 33.5334 40.0469 34.7159 39.741 35.5029C39.336 36.5452 38.852 37.2892 38.0706 38.0707C37.2892 38.8521 36.5451 39.3361 35.5028 39.7411C34.7158 40.047 33.5334 40.4108 31.356 40.5101C29.0015 40.6176 28.2953 40.6403 22.332 40.6403C16.3687 40.6403 15.6624 40.6176 13.308 40.5101C11.1306 40.4108 9.94816 40.047 9.16124 39.7411C8.11884 39.3361 7.37482 38.8521 6.5934 38.0707C5.81197 37.2892 5.32796 36.5452 4.92293 35.5029C4.6171 34.7159 4.25329 33.5334 4.15392 31.3562C4.04648 29.0013 4.02378 28.295 4.02378 22.3321C4.02378 16.3691 4.04648 15.6629 4.15392 13.3081C4.25329 11.1307 4.6171 9.94825 4.92293 9.16124C5.32796 8.11893 5.81197 7.37491 6.5934 6.59349C7.37482 5.81206 8.11884 5.32805 9.16124 4.92293C9.94816 4.61719 11.1306 4.25338 13.3079 4.15401C15.6628 4.04656 16.369 4.02387 22.332 4.02387ZM22.332 0C16.2669 0 15.5065 0.0257077 13.1246 0.134389C10.7475 0.242893 9.12418 0.620353 7.70361 1.17245C6.23509 1.74316 4.98968 2.50676 3.74818 3.74827C2.50668 4.98977 1.74307 6.23517 1.17236 7.7037C0.620264 9.12427 0.242805 10.7476 0.1343 13.1247C0.025619 15.5065 0 16.267 0 22.3321C0 28.3971 0.025619 29.1576 0.1343 31.5395C0.242805 33.9166 0.620264 35.5399 1.17236 36.9604C1.74307 38.4289 2.50668 39.6744 3.74818 40.9159C4.98968 42.1574 6.23509 42.921 7.70361 43.4917C9.12418 44.0438 10.7475 44.4213 13.1246 44.5298C15.5065 44.6384 16.2669 44.6641 22.332 44.6641C28.397 44.6641 29.1576 44.6384 31.5394 44.5298C33.9165 44.4213 35.5398 44.0438 36.9604 43.4917C38.4289 42.921 39.6743 42.1574 40.9158 40.9159C42.1573 39.6744 42.9209 38.429 43.4916 36.9604C44.0437 35.5399 44.4212 33.9166 44.5297 31.5395C44.6384 29.1576 44.6641 28.3971 44.6641 22.3321C44.6641 16.267 44.6384 15.5065 44.5297 13.1247C44.4212 10.7476 44.0437 9.12427 43.4916 7.7037C42.9209 6.23517 42.1573 4.98977 40.9158 3.74827C39.6743 2.50676 38.4289 1.74316 36.9604 1.17245C35.5398 0.620353 33.9165 0.242893 31.5394 0.134389C29.1576 0.0257077 28.397 0 22.332 0ZM22.332 10.8642C15.9985 10.8642 10.8642 15.9986 10.8642 22.3321C10.8642 28.6656 15.9985 33.7999 22.332 33.7999C28.6655 33.7999 33.7998 28.6656 33.7998 22.3321C33.7998 15.9986 28.6655 10.8642 22.332 10.8642ZM22.332 29.7761C18.2208 29.7761 14.8879 26.4433 14.8879 22.3321C14.8879 18.2209 18.2208 14.888 22.332 14.888C26.4432 14.888 29.776 18.2209 29.776 22.3321C29.776 26.4433 26.4432 29.7761 22.332 29.7761ZM36.9327 10.4112C36.9327 11.8912 35.733 13.0911 34.2529 13.0911C32.7728 13.0911 31.573 11.8912 31.573 10.4112C31.573 8.93111 32.7728 7.73136 34.2529 7.73136C35.733 7.73136 36.9327 8.93111 36.9327 10.4112Z" fill="white"/>
</svg>
