<svg width="65" height="65" viewBox="0 0 65 65" fill="none" xmlns="http://www.w3.org/2000/svg">
<circle cx="32.5" cy="32.5" r="32" stroke="black"/>
<path d="M32.5 18.1532C37.1727 18.1532 37.7261 18.171 39.5714 18.2552C41.2777 18.3331 42.2043 18.6182 42.821 18.8577C43.6378 19.1752 44.2208 19.5545 44.8332 20.1668C45.4455 20.7792 45.8248 21.3622 46.1422 22.179C46.3818 22.7957 46.6669 23.7223 46.7448 25.4285C46.829 27.2739 46.8468 27.8273 46.8468 32.5C46.8468 37.1728 46.829 37.7262 46.7448 39.5715C46.6669 41.2777 46.3818 42.2043 46.1422 42.8211C45.8248 43.6379 45.4455 44.2209 44.8332 44.8332C44.2208 45.4456 43.6378 45.8249 42.821 46.1423C42.2043 46.3819 41.2777 46.667 39.5714 46.7449C37.7264 46.8291 37.173 46.8469 32.5 46.8469C27.827 46.8469 27.2735 46.8291 25.4285 46.7449C23.7223 46.667 22.7957 46.3819 22.179 46.1423C21.3621 45.8249 20.7791 45.4456 20.1668 44.8332C19.5544 44.2209 19.1751 43.6379 18.8577 42.8211C18.6181 42.2043 18.333 41.2777 18.2551 39.5716C18.1709 37.7262 18.1531 37.1728 18.1531 32.5C18.1531 27.8273 18.1709 27.2739 18.2551 25.4286C18.333 23.7223 18.6181 22.7957 18.8577 22.179C19.1751 21.3622 19.5544 20.7792 20.1668 20.1668C20.7791 19.5545 21.3621 19.1752 22.179 18.8577C22.7957 18.6182 23.7223 18.3331 25.4284 18.2552C27.2738 18.171 27.8272 18.1532 32.5 18.1532ZM32.5 15C27.7472 15 27.1513 15.0201 25.2848 15.1053C23.422 15.1903 22.15 15.4861 21.0368 15.9188C19.886 16.366 18.9101 16.9644 17.9372 17.9372C16.9643 18.9101 16.3659 19.8861 15.9187 21.0368C15.4861 22.15 15.1903 23.4221 15.1052 25.2848C15.0201 27.1513 15 27.7473 15 32.5C15 37.2528 15.0201 37.8487 15.1052 39.7152C15.1903 41.578 15.4861 42.85 15.9187 43.9632C16.3659 45.1139 16.9643 46.0899 17.9372 47.0628C18.9101 48.0357 19.886 48.6341 21.0368 49.0813C22.15 49.5139 23.422 49.8097 25.2848 49.8948C27.1513 49.9799 27.7472 50 32.5 50C37.2527 50 37.8487 49.9799 39.7152 49.8948C41.5779 49.8097 42.85 49.5139 43.9632 49.0813C45.1139 48.6341 46.0899 48.0357 47.0628 47.0628C48.0356 46.0899 48.634 45.114 49.0812 43.9632C49.5139 42.85 49.8097 41.578 49.8947 39.7152C49.9799 37.8487 50 37.2528 50 32.5C50 27.7473 49.9799 27.1513 49.8947 25.2848C49.8097 23.4221 49.5139 22.15 49.0812 21.0368C48.634 19.8861 48.0356 18.9101 47.0628 17.9372C46.0899 16.9644 45.1139 16.366 43.9632 15.9188C42.85 15.4861 41.5779 15.1903 39.7152 15.1053C37.8487 15.0201 37.2527 15 32.5 15ZM32.5 23.5135C27.5369 23.5135 23.5134 27.5369 23.5134 32.5C23.5134 37.4631 27.5369 41.4865 32.5 41.4865C37.4631 41.4865 41.4865 37.4631 41.4865 32.5C41.4865 27.5369 37.4631 23.5135 32.5 23.5135ZM32.5 38.3334C29.2783 38.3334 26.6666 35.7217 26.6666 32.5C26.6666 29.2784 29.2783 26.6667 32.5 26.6667C35.7216 26.6667 38.3333 29.2784 38.3333 32.5C38.3333 35.7217 35.7216 38.3334 32.5 38.3334ZM43.9415 23.1585C43.9415 24.3183 43.0013 25.2585 41.8415 25.2585C40.6817 25.2585 39.7415 24.3183 39.7415 23.1585C39.7415 21.9987 40.6817 21.0585 41.8415 21.0585C43.0013 21.0585 43.9415 21.9987 43.9415 23.1585Z" fill="#0A0A08"/>
</svg>
