<svg width="65" height="65" viewBox="0 0 65 65" fill="none" xmlns="http://www.w3.org/2000/svg">
<circle cx="32.5" cy="32.5" r="32" stroke="black"/>
<path d="M33.3813 12C35.5216 12 37.7878 12 39.9281 12C40.054 14.4835 40.9353 17.0912 42.8237 18.9538C44.7122 20.8164 47.3561 21.6857 50 21.934V28.6395C47.6079 28.5153 45.0899 28.0186 42.9496 27.0252C41.9424 26.6527 41.0612 26.0318 40.1799 25.5351C40.1799 30.3779 40.1799 35.2208 40.1799 40.0636C40.054 42.4229 39.2986 44.6581 37.9137 46.6449C35.7734 49.8734 31.8705 51.8602 27.9676 51.9844C25.5755 52.1086 23.1835 51.4877 21.1691 50.2459C17.7698 48.0108 15.3777 44.4097 15 40.5603C15 39.6911 15 38.946 15 38.0768C15.2518 34.9724 16.8885 31.868 19.2806 29.8812C22.0504 27.5219 25.9532 26.4043 29.6043 27.0252C29.6043 29.5087 29.4784 31.868 29.4784 34.3515C27.8417 33.8548 25.8273 33.979 24.4424 34.9724C23.4353 35.5933 22.554 36.7109 22.1763 37.8284C21.7986 38.6977 21.9245 39.5669 21.9245 40.4361C22.3022 43.168 24.946 45.4031 27.8417 45.1548C29.7302 45.1548 31.4928 44.0372 32.5 42.5471C32.8777 42.0504 33.1295 41.4295 33.1295 40.8086C33.2554 37.8284 33.2554 34.8482 33.2554 31.9922C33.3813 25.2867 33.3813 18.7055 33.3813 12Z" fill="black"/>
</svg>
