<svg width="39" height="44" viewBox="0 0 39 44" fill="none" xmlns="http://www.w3.org/2000/svg">
<path d="M30.5268 6.86975C28.9211 5.02736 27.9547 2.62617 27.9547 0.00146484H25.9414C26.4591 2.87106 28.1684 5.33305 30.5268 6.86975Z" fill="white"/>
<path d="M11.9007 21.7066C8.41314 21.7066 5.57642 24.545 5.57642 28.0358C5.57642 30.4682 6.95862 32.5851 8.97193 33.6419C8.2192 32.6048 7.77216 31.3327 7.77216 29.9489C7.77216 26.458 10.6089 23.6197 14.0964 23.6197C14.7473 23.6197 15.3767 23.7314 15.9668 23.9139V16.2205C15.357 16.1384 14.7358 16.0874 14.0964 16.0874C13.9847 16.0874 13.8828 16.0973 13.771 16.0973V21.9992C13.1711 21.8167 12.5515 21.705 11.9007 21.705V21.7066Z" fill="white"/>
<path d="M36.2298 10.2471V16.098C32.3264 16.098 28.7057 14.8473 25.7573 12.7304V28.0448C25.7573 35.6872 19.5448 41.9145 11.8991 41.9145C8.95061 41.9145 6.20592 40.9777 3.95923 39.4015C6.49025 42.1183 10.1011 43.8275 14.0965 43.8275C21.7323 43.8275 27.9547 37.6101 27.9547 29.9578V14.6435C30.9031 16.7604 34.5222 18.0111 38.4272 18.0111V10.4805C37.6646 10.4805 36.9316 10.3983 36.2298 10.2471Z" fill="white"/>
<path d="M25.7573 28.0451V12.7307C28.7057 14.8476 32.3248 16.0983 36.2298 16.0983V10.2474C33.9732 9.7691 31.9911 8.54796 30.5268 6.86828C28.1683 5.33159 26.4689 2.86959 25.9315 0H20.4207L20.4109 30.1915C20.2893 33.5706 17.5035 36.2873 14.0965 36.2873C11.9813 36.2873 10.1208 35.2388 8.9621 33.6511C6.94878 32.5828 5.56658 30.4758 5.56658 28.0434C5.56658 24.5526 8.4033 21.7142 11.8909 21.7142C12.5417 21.7142 13.1712 21.826 13.7612 22.0101V16.1082C6.27823 16.2709 0.238281 22.4176 0.238281 29.9581C0.238281 33.6018 1.65171 36.9184 3.95922 39.4018C6.20591 40.9796 8.9506 41.9148 11.8991 41.9148C19.5349 41.9148 25.7573 35.6875 25.7573 28.0451Z" fill="white"/>
</svg>
