<svg width="57" height="57" viewBox="0 0 57 57" fill="none" xmlns="http://www.w3.org/2000/svg">
<path d="M57 0H0V57H57V0Z" fill="#E91E25"/>
<path d="M38 16.0864C35.34 15.3264 32.1734 14.5664 28.5 14.5664C24.8267 14.5664 21.66 15.0731 19 16.0864C11.9067 18.2397 7.09338 23.1797 7.09338 28.4997C7.09338 36.0997 16.5934 42.4331 28.5 42.4331C40.4067 42.4331 49.9067 36.3531 49.9067 28.4997C49.9067 23.1797 45.0934 18.2397 38 16.0864ZM28.5 36.3531C26.8534 36.3531 25.3334 32.9331 25.3334 28.4997C26.3467 28.4997 27.4867 28.7531 28.5 28.7531C29.7667 28.7531 30.6534 28.7531 31.6667 28.4997C31.92 32.9331 30.4 36.3531 28.5 36.3531ZM25.5867 25.0797C26.0934 21.9131 27.2334 20.0131 28.7534 20.0131C30.2734 20.0131 31.4134 22.1664 31.9201 25.0797C30.9067 25.0797 30.0201 25.3331 28.7534 25.3331C27.4867 25.3331 26.6 25.3331 25.5867 25.0797ZM33.5667 24.8264C32.8067 20.0131 30.9067 16.5931 28.7534 16.5931C26.6 16.5931 24.5734 20.0131 23.9401 24.8264C19.5067 24.0664 16.5934 22.6731 16.5934 20.6464C16.5934 18.2397 22.1667 16.2131 29.0067 16.2131C35.8467 16.2131 41.4201 18.1131 41.4201 20.6464C40.9134 22.6731 38 24.3197 33.5667 24.8264ZM10.2601 27.9931C10.2601 25.5864 11.2734 23.3064 12.6667 21.6597V21.9131C12.6667 24.8264 17.1 27.2331 23.18 28.2464C23.18 28.4997 23.18 28.7531 23.18 29.0064C23.18 34.3264 24.7001 39.2664 26.8534 40.6597C17.4801 40.1531 10.2601 34.5797 10.2601 27.9931ZM30.1467 40.6597C32.3 39.0131 33.8201 34.3264 33.8201 29.0064C33.8201 28.7531 33.8201 28.4997 33.8201 28.2464C39.9001 27.4864 44.3334 24.8264 44.3334 21.9131C44.3334 21.6597 44.3334 21.6597 44.3334 21.4064C45.8534 23.3064 46.7401 25.5864 46.7401 27.7397C46.7401 34.5797 39.5201 40.1531 30.1467 40.6597Z" fill="white"/>
</svg>
